<svg version="1.1" xmlns="http://www.w3.org/2000/svg" xmlns:xlink="http://www.w3.org/1999/xlink" width="82px" height="82px" viewBox="0,0,256,256"><g fill="#5eead4" fill-rule="nonzero" stroke="none" stroke-width="1" stroke-linecap="butt" stroke-linejoin="miter" stroke-miterlimit="10" stroke-dasharray="" stroke-dashoffset="0" font-family="none" font-weight="none" font-size="none" text-anchor="none" style="mix-blend-mode: normal"><g transform="translate(198.85228,300.0103) rotate(-154) scale(4,4)"><path d="M46.15234,9.2832c-0.54407,-0.00558 -1.08704,0.03928 -1.62695,0.12891c-1.07983,0.17925 -2.14612,0.54146 -3.16797,1.05273c-4.08739,2.04509 -7.59645,6.44016 -9.47461,11.80078c-0.86503,2.46895 -1.32323,5.16489 -1.35742,7.92383c-5.70226,-1.45873 -11.1774,-4.60944 -14.83594,-11.11719c3.06152,0.51224 6.55225,0.31476 10.56641,-1.80078c0.38888,-0.20495 0.59835,-0.6398 0.5162,-1.07164c-0.08215,-0.43184 -0.43665,-0.75941 -0.87362,-0.80726c-4.93888,-0.54034 -8.43918,-1.99474 -15.29688,-4.84961c-0.12379,-0.0513 -0.25663,-0.07721 -0.39062,-0.07617c-0.29243,0.00188 -0.56939,0.13165 -0.75797,0.35517c-0.18858,0.22351 -0.26988,0.51837 -0.2225,0.80694c0.43141,2.6286 -0.26309,5.78566 -1.10742,8.25391c-0.84433,2.46825 -1.79492,4.21875 -1.79492,4.21875c-0.18688,0.31494 -0.18668,0.70684 0.00053,1.02159c0.18721,0.31475 0.53147,0.50201 0.89742,0.48814c0.36595,-0.01387 0.69506,-0.22664 0.85791,-0.55466c0,0 1.03147,-1.89389 1.93164,-4.52539c0.74929,-2.19043 1.26086,-4.91509 1.16797,-7.60937c4.49162,1.86241 7.9257,3.02625 11.29883,3.74219c-3.26356,1.0361 -5.98218,0.70665 -8.5918,-0.03906c-0.49249,-0.1577 -1.02399,0.08605 -1.2258,0.56217c-0.20181,0.47612 -0.00736,1.02757 0.44845,1.27181c4.01384,8.31509 10.73941,12.17045 17.51758,13.78516c0.19465,2.57481 0.73022,5.17821 1.89648,7.71094c2.74129,5.95312 8.4374,11.41259 18.12695,14.98242c0.33902,0.14155 0.72835,0.08582 1.01405,-0.14514c0.2857,-0.23096 0.42178,-0.59997 0.35441,-0.96112c-0.06736,-0.36115 -0.32731,-0.6563 -0.67706,-0.76874c-9.31045,-3.43017 -14.50465,-8.52203 -17.00195,-13.94531c-0.96645,-2.09879 -1.4251,-4.25352 -1.65234,-6.39844c0.392,0.06664 0.78576,0.2192 1.17578,0.27148c7.47673,1.00274 14.11574,-1.58488 18.11133,-5.56836c1.99779,-1.99174 3.34741,-4.34769 3.75,-6.8125c0.40259,-2.46481 -0.18764,-5.03504 -1.94727,-7.23437c-1.75849,-2.19815 -3.83165,-3.48854 -5.99805,-3.92187c-0.5416,-0.10833 -1.08678,-0.16434 -1.63086,-0.16992zM46.12695,11.2832c0.42502,0.0044 0.84683,0.04748 1.26367,0.13086c1.66737,0.33352 3.30486,1.30683 4.82813,3.21094c1.43187,1.78967 1.85509,3.70336 1.53516,5.66211c-0.31994,1.95875 -1.43067,3.96724 -3.1875,5.71875c-3.51366,3.50302 -9.56432,5.92517 -16.43359,5.00391c-0.55039,-0.07378 -1.09378,-0.27061 -1.64453,-0.37305c-0.02021,-2.67966 0.43957,-5.30108 1.2832,-7.70898c1.73097,-4.94051 5.02666,-8.94476 8.48242,-10.67383c0.86394,-0.43227 1.72995,-0.72575 2.58984,-0.86914c0.42994,-0.0717 0.85818,-0.10597 1.2832,-0.10156z"></path></g></g></svg>