<svg xmlns="http://www.w3.org/2000/svg" viewBox="0 0 97.77 90.43"><defs><style>.cls-1{fill:#3f3f3f;}</style></defs><g id="Layer_2" data-name="Layer 2"><g id="OBJECTS"><path class="cls-1" d="M75.63,32.08a110.34,110.34,0,0,0-12.85-.4c.79-2.18,1.54-4.34,2.54-6.44a.91.91,0,0,0-1.43-1.1c-1.29,1.2-2.61,2.37-3.92,3.55L58,29.43a4.89,4.89,0,0,0-1.68,2,.51.51,0,0,0,.62.63,5,5,0,0,0,2.17-1.43l2-1.77.8-.7a20,20,0,0,0-1,3.5.84.84,0,0,0,.28.81.69.69,0,0,0,.58.86,70.78,70.78,0,0,0,10.2.87A37,37,0,0,1,61.8,38.56a1.17,1.17,0,0,0-.51,1.94,90.61,90.61,0,0,0,9.42,6.74,33.83,33.83,0,0,1-14.54-2.13c-.88-.32-1.66.65-1.45,1.46a50.47,50.47,0,0,1,1.5,13.71q-2.76-7-5.5-14a1.19,1.19,0,0,0-2-.52,118.94,118.94,0,0,1-11.95,9.54l8.32-11.65a1.2,1.2,0,0,0-.71-1.75,111.5,111.5,0,0,1-15.36-4.22,31.47,31.47,0,0,1,18.41-.86,1.08,1.08,0,0,0,1.2-1.56A56.91,56.91,0,0,1,45,23.66a34.72,34.72,0,0,1,9.76,9.42,1,1,0,0,0,1.65-1A27.11,27.11,0,0,0,43.93,20.35a1.19,1.19,0,0,0-1.72,1.32,120.5,120.5,0,0,0,3.88,12.5,29.59,29.59,0,0,0-21,2.52,1.28,1.28,0,0,0,.3,2.32,127.9,127.9,0,0,0,16.73,4.83l-11,15.39c-.7,1,.66,2.23,1.63,1.63A122.57,122.57,0,0,0,49.12,48.59c2.28,5.75,4.57,11.5,6.78,17.27.36,1,2.11,1.3,2.29,0A50.32,50.32,0,0,0,57.48,48a40.62,40.62,0,0,0,17.22,1.4c1.24-.17,2-1.81.69-2.55-3.69-2.09-7.22-4.41-10.7-6.82A44.51,44.51,0,0,0,76.2,34.2,1.15,1.15,0,0,0,75.63,32.08Z"/><path class="cls-1" d="M89.91,31.73A44.62,44.62,0,0,0,97.65,20a1.2,1.2,0,0,0-1-1.78,102.11,102.11,0,0,0-25.72,3.59A29.88,29.88,0,0,0,73.08,5.06,8.52,8.52,0,0,0,71.8,1,2.7,2.7,0,0,0,68.39.33c-1.37.72-2.17,2.17-3,3.4L62.17,8.37,54.63,19.28c-.74,1.07,1,2.09,1.76,1l6.88-10,3.45-5c.44-.64,2.64-4.48,3.57-2.67a13.42,13.42,0,0,1,.84,5A28.24,28.24,0,0,1,71,12.87a29.26,29.26,0,0,1-3.29,10.21A1.19,1.19,0,0,0,69,24.81a105.36,105.36,0,0,1,25.73-4.14,41.35,41.35,0,0,1-16.86,18,1,1,0,0,0,0,1.79A58.11,58.11,0,0,1,93.62,56.64c-8.1,2.73-17.4,5.4-25.45,1.47a1.33,1.33,0,0,0-1.78.46c-5,8.6-4.66,19.21-9.21,27.94A102.28,102.28,0,0,1,45.91,60.7,1.23,1.23,0,0,0,44.13,60C34.82,64,25.56,68.21,16.19,72.12,18.06,63.94,25.85,58.39,29,50.74a1.17,1.17,0,0,0-.81-1.43c-9.07-2.38-17.65-7.23-25-13.05a55.57,55.57,0,0,1,30.41-7.57,1.22,1.22,0,0,0,1.16-1.52A173.18,173.18,0,0,1,32,8.8a149.91,149.91,0,0,1,24.2,16c1,.77,2.31-.52,1.37-1.37A106.21,106.21,0,0,0,31.33,6c-.67-.31-1.75,0-1.65,1,.69,6.45,1.39,12.94,2.51,19.34A56.6,56.6,0,0,0,.58,35.11,1.18,1.18,0,0,0,.35,37a81.45,81.45,0,0,0,12.92,8.59A94.27,94.27,0,0,0,26.2,51.06a107.67,107.67,0,0,1-7.39,10.53c-2.71,3.71-5.1,7.8-5.4,12.5a1.23,1.23,0,0,0,1.84,1C24.74,70.81,34.38,66.8,44,62.67A106.92,106.92,0,0,0,56.07,89.78a1.35,1.35,0,0,0,2.3,0c5.7-8.75,5-19.79,9.74-28.9,9,3.65,19,.72,27.9-2.27a1.34,1.34,0,0,0,.79-1.94A57.71,57.71,0,0,0,80.3,39.61,46.84,46.84,0,0,0,89.91,31.73Z"/></g></g></svg>