<svg xmlns="http://www.w3.org/2000/svg" viewBox="0 0 60.96 71.63"><defs><style>.cls-1{fill:#3f3f3f;}</style></defs><g id="Layer_2" data-name="Layer 2"><g id="OBJECTS"><path class="cls-1" d="M59.9,53a323.58,323.58,0,0,0-49.26-4.49c11.65-3.76,24.14-5.94,35.53-10.22A71.12,71.12,0,0,0,56.76,33.4c1.06-.6,1-1.86-.37-2.19-8.59-2.07-17.61-2.5-26.55-2.79-7.32-.24-14.68-.41-22-.76,5.74-2,11.42-4.08,17.06-6.2,7.61-2.85,15.1-5.86,22.39-9.17q6.2-2.8,12.12-5.92A1.12,1.12,0,0,0,59,4.21,205,205,0,0,0,3.37.55C2,.59,2,2.22,3.37,2.18A238.11,238.11,0,0,1,54.88,5.82c-13.09,6.5-27.07,11.88-41.14,17-4.33,1.56-8.72,3-13,4.7-1.39.54-.67,2.18.76,2.19,9.28.07,18.59.55,27.85.93,7.74.31,15.54.68,23,2.21C41,38.55,27.4,41,14.75,44.73c-3.89,1.15-7.68,2.44-11.39,3.91-1.29.52-.66,2.11.74,2.1a298.59,298.59,0,0,1,50.95,3.82A389.69,389.69,0,0,1,3.67,69.78c-1.5.34-.88,2.1.65,1.82A297.49,297.49,0,0,0,60.25,55.11,1.07,1.07,0,0,0,59.9,53Z"/></g></g></svg>