<svg xmlns="http://www.w3.org/2000/svg" viewBox="0 0 89 90.57"><defs><style>.cls-1{fill:#3f3f3f;}</style></defs><g id="Layer_2" data-name="Layer 2"><g id="OBJECTS"><path class="cls-1" d="M88.43,37.67c-.1-1.12-1.86-1.13-1.75,0a42.36,42.36,0,0,1-.34,7.2A50.09,50.09,0,0,1,85.2,52,48.58,48.58,0,0,1,80.13,65,45.25,45.25,0,0,1,59.48,83.69a44.4,44.4,0,0,1-28.2,3,27.82,27.82,0,0,1-13-7,43.6,43.6,0,0,1-8-11.2C5.5,59.47,1.75,49,3,38.72,4.11,29.24,9.16,20.37,16.15,14c13.16-12.1,34.69-15.6,49-3.43C71.48,15.94,76,23.81,76.28,32.27c.34,10-5,19.44-11.08,27-5.6,7-13.13,13.1-22.41,13.77a27.87,27.87,0,0,1-22.12-8.58c-5.74-6.14-7.72-15-6-23.13a25.6,25.6,0,0,1,15-18.67A27.77,27.77,0,0,1,53.92,24c4.07,2.37,7.68,6,8,11s-2.07,9.83-4.76,13.89a39.55,39.55,0,0,1-9.95,10.56c-3.81,2.68-8.49,4.55-13.19,3.49-9.16-2-14-13.14-12.27-21.75a14.25,14.25,0,0,1,7.11-10,12.92,12.92,0,0,1,11.55-.5c3.79,1.9,6.61,6.59,3.8,10.48-2.51,3.47-7.62,4.54-11.48,2.94a6.17,6.17,0,0,1-3.91-4.32,4.55,4.55,0,0,1,2-4.89c.82-.47.09-1.71-.75-1.27-3.89,2-3.68,7.52-.75,10.28C32.67,47,38,47.23,42,45.22s6.4-6.46,4.53-10.83-6.25-6.61-10.72-6.75A15.79,15.79,0,0,0,24.33,32.2a18,18,0,0,0-4.75,13.16c.27,9.56,7.33,20.08,17.77,19.77,5.13-.16,9.8-2.82,13.62-6.07a44.29,44.29,0,0,0,10-12.26c2.5-4.54,4.25-10,2.65-15.16-1.52-4.86-5.78-8.41-10.23-10.58a30.11,30.11,0,0,0-26.89.51c-8.3,4.36-13.43,12.76-14.51,22a28.12,28.12,0,0,0,9.33,24.7,30.35,30.35,0,0,0,25.35,6.69c10.12-2.06,17.87-9.89,23.57-18,6.16-8.81,10.62-19.36,8.16-30.24A34.91,34.91,0,0,0,62,4.75C53.31-.37,42.7-1.15,33.06,1.46,12.52,7-2.87,27.47.45,49A66.53,66.53,0,0,0,5.88,65.91,55.72,55.72,0,0,0,14,79.22a30.87,30.87,0,0,0,12.75,9A40.76,40.76,0,0,0,43.09,90.5,49.71,49.71,0,0,0,71.87,79.28,48.06,48.06,0,0,0,88,52.9a46.54,46.54,0,0,0,1-7.52A52.31,52.31,0,0,0,88.43,37.67Z"/></g></g></svg>