<svg xmlns="http://www.w3.org/2000/svg" viewBox="0 0 18.29 17.49"><defs><style>.cls-1{fill:#3f3f3f;}</style></defs><g id="Layer_2" data-name="Layer 2"><g id="OBJECTS"><path class="cls-1" d="M18.18,7.1c-.46-2.68-2.83-5.78-5.86-4.85a.57.57,0,0,0,.15,1.12,4.57,4.57,0,0,1,4,3.5,7.11,7.11,0,0,1-1,5.6A7.62,7.62,0,0,1,5,15,7.73,7.73,0,0,1,2.15,4.83C3,3.13,4.93.88,7.07,1.25c2,.34,3.46,2.5,3.95,4.32.45,1.64.41,4.23-1.65,4.72A2.44,2.44,0,0,1,6.59,8.76,2.83,2.83,0,0,1,7.84,5.67C8.1,5.49,8,5,7.62,5.14a3.19,3.19,0,0,0-1,5.29,3.4,3.4,0,0,0,5.37-.91c2.11-4.24-2.55-11.61-7.46-9C-.11,3-1.41,9.71,1.7,13.81A9.19,9.19,0,0,0,18.18,7.1Z"/></g></g></svg>