<svg xmlns="http://www.w3.org/2000/svg" viewBox="0 0 81.93 69.77"><defs><style>.cls-1{fill:#3f3f3f;}</style></defs><g id="Layer_2" data-name="Layer 2"><g id="OBJECTS"><path class="cls-1" d="M78.73,51.33c2.84-5.75,4.37-13.07,0-18.48a12.83,12.83,0,0,0-2-1.94,22.11,22.11,0,0,0,2.19-11c-.51-6.33-3.92-12.18-9.92-14.71S55.92,3.7,49.83,5.64c-1.64.53-3.26,1.14-4.84,1.82A8.13,8.13,0,0,0,41.52,2C38.73.27,34.71.25,31.53.42a24.86,24.86,0,0,0-11.3,3.3A10.54,10.54,0,0,0,16,.61a10.1,10.1,0,0,0-8.93,1c-3.22,2-5.45,5.29-7,8.67-.48,1.06,1,2,1.58.93C4.35,5.94,10.92-1.08,17.16,3.77a8.51,8.51,0,0,1,1.23,1.17A19.16,19.16,0,0,0,14,9.54a16.79,16.79,0,0,0-3,8.87,1.22,1.22,0,0,0,1.2,1.2c6.38.19,11.85-6.24,9.88-12.5a10,10,0,0,0-.6-1.43c.27-.17.55-.32.83-.47A22.23,22.23,0,0,1,31.1,2.79c2.81-.2,6.57-.35,9.09,1.12a6,6,0,0,1,2.63,4.56,41.31,41.31,0,0,0-9.53,6.42,30.34,30.34,0,0,0-5.73,7c-1.43,2.45-3.15,5.85-2.79,8.77.42,3.41,3.89,3.95,6.58,2.8a21.52,21.52,0,0,0,7.47-6A26.54,26.54,0,0,0,45.29,10c8.66-4,21.9-7.12,28.2,1.71,3.11,4.35,3.56,10.09,2,15.1a21.56,21.56,0,0,1-1,2.61,22.26,22.26,0,0,0-12-2.22,33,33,0,0,0-18,7.2c-4.62,3.68-10.69,10.37-7.62,16.7,1.57,3.24,4.9,4,8.2,3.29A45.74,45.74,0,0,0,55.3,50.89,49.14,49.14,0,0,0,72.06,38.24,35.84,35.84,0,0,0,75.73,33a9.52,9.52,0,0,1,2.77,4c1.5,4.14.29,8.77-1.68,12.74a10.09,10.09,0,0,0-2.57-1.27c-6.55-2.15-13.41,2.1-18,6.42A6.2,6.2,0,0,0,54,58.69a5.5,5.5,0,0,0,1.5,4.18c2.34,2.63,6.38,2.4,9.44,1.46,5.48-1.68,9.76-6,12.63-10.87a3.25,3.25,0,0,1,.23.29,8.52,8.52,0,0,1-2.69,12.46,9.22,9.22,0,0,1-6.84,1.05,1,1,0,0,0-.54,2,10.95,10.95,0,0,0,13.73-7A11.31,11.31,0,0,0,78.73,51.33ZM19.8,12.24a8,8,0,0,1-6.26,4.89A15.9,15.9,0,0,1,19.65,6.94,6.81,6.81,0,0,1,19.8,12.24ZM31,30.85c-.81.44-2.25,1.12-3.15.54-1.18-.76-.36-2.91,0-3.91a24.16,24.16,0,0,1,3.57-6.82,34.36,34.36,0,0,1,11.53-9.51,23.76,23.76,0,0,1-1.57,7.4A24.13,24.13,0,0,1,31,30.85Zm34.69,10a48.86,48.86,0,0,1-15.28,9.09c-1.29.48-2.61.91-3.93,1.28-1.55.43-3.32,1-4.92.6-2.71-.71-3.35-4-2.72-6.33.76-2.83,2.82-5.26,4.84-7.31a29.63,29.63,0,0,1,6.54-5,28.9,28.9,0,0,1,15.94-3.78,18.39,18.39,0,0,1,7.35,2A36.59,36.59,0,0,1,65.69,40.82Zm-3.5,21.42a6.13,6.13,0,0,1-4.1-.63,2.9,2.9,0,0,1-1.36-3.52,9.68,9.68,0,0,1,2.82-3,27,27,0,0,1,3.91-2.71c3.74-2.11,8.72-3.12,12.28-.7-.31.51-.62,1-.94,1.5C71.93,57.54,67.54,61.5,62.19,62.24Z"/></g></g></svg>