<svg xmlns="http://www.w3.org/2000/svg" viewBox="0 0 101.28 79.55"><defs><style>.cls-1{fill:#3f3f3f;}</style></defs><g id="Layer_2" data-name="Layer 2"><g id="OBJECTS"><path class="cls-1" d="M99,61.3a6.12,6.12,0,0,0-5.55-.87,6.54,6.54,0,0,0-1.78.87c0-.4.06-.81.08-1.21a58.2,58.2,0,0,0-.23-8.35c-.23-2.26-.37-4.9-1.37-6.9C87.74,40,82.86,43.2,80.3,46a41.42,41.42,0,0,0-3.62,4.54c.09-.66.18-1.32.25-2a104.52,104.52,0,0,0,.68-13.36c0-3.73,0-7.84-1.12-11.38-.94-3-2.91-5.73-5.84-5.4-3.33.37-5.67,4.27-7.59,7.13a83.81,83.81,0,0,0-5.26,9,163,163,0,0,0-.15-25C57.35,5.91,56.82.41,52.93,0s-6.45,5.65-8.15,9.06A161.31,161.31,0,0,0,35,33.67q.27-3.74.45-7.48c.16-3.4.11-6.94-1.09-10.1s-3.59-5-6.43-4.25c-3.32.85-5.55,4.78-7.27,8a78,78,0,0,0-7.74,23.77,188.31,188.31,0,0,0-2.37,21.72C9.25,60.52,7.18,56,4.45,58.79a12.54,12.54,0,0,0-2.16,3.92A32.23,32.23,0,0,0,.7,67.79,30.52,30.52,0,0,0,.23,78.1c.09.75,1.15.58,1.11-.18A32.6,32.6,0,0,1,4.52,61.73C5.06,60.65,6,59,6.94,60.56A22.5,22.5,0,0,1,8.6,64.49,31.68,31.68,0,0,1,10.24,73c.08,1.42,1.72,1.39,1.83,0,.64-8.11.95-16.23,2.08-24.28a91.28,91.28,0,0,1,5.93-23c1.45-3.41,3.16-7.12,5.53-9.75,1.14-1.25,2.62-2.31,4.22-1.94a3.89,3.89,0,0,1,2.49,2.24c1.25,2.57,1.3,5.9,1.14,8.78-.27,4.82-.66,9.63-1.11,14.43-.22,2.34-.47,4.67-.74,7A171.75,171.75,0,0,0,28,71.66a1.23,1.23,0,1,0,2.42.39c1.34-7.73,2.4-15.54,3.25-23.37A162.35,162.35,0,0,1,44.12,16q1.46-3.25,3-6.4A27.11,27.11,0,0,1,50.37,4c1.13-1.3,2.83-2.1,3.9-.26.88,1.51,1,3.59,1.12,5.36A166.29,166.29,0,0,1,55,39.53c-.05.51-.12,1-.18,1.52-.73,1.8-1.42,3.63-2.05,5.49a95.42,95.42,0,0,0-5,26.59c-.07,1.83,2,1.9,2.5.41a163.82,163.82,0,0,0,6.78-31.27A83.25,83.25,0,0,1,62.3,31.63,50.2,50.2,0,0,1,68.2,23c1-1.05,2.34-2.15,3.71-1.57a4.16,4.16,0,0,1,2,2.51C75,27,75,30.68,75,33.91A108.86,108.86,0,0,1,74.54,46a100,100,0,0,1-1.65,11l-.07.15a50.05,50.05,0,0,0-4.4,15.33,1.73,1.73,0,0,0,.77,1.88,1.23,1.23,0,0,0,1.67-.65,106.17,106.17,0,0,0,4.57-15.84,41.25,41.25,0,0,1,4.44-7.25,23,23,0,0,1,3.83-4.2c1.14-.89,3.1-2.06,4.19-.45s1,4.3,1.21,6.12a57.83,57.83,0,0,1,.16,7.09c-.07,1.83-.23,3.64-.48,5.44a5.12,5.12,0,0,0-.27.52C87,68.33,86.58,72,86.27,75.52a1.51,1.51,0,0,0,1.15,1.55c.69.11,1.2-.39,1.44-1.13a57.23,57.23,0,0,0,2.4-10.49,4.94,4.94,0,0,1,4.26-2.66c2.1,0,3.72,1.36,3.61,4A23.84,23.84,0,0,1,98,72.19c-.51,1.77-1.06,3.51-1.72,5.22s1.4,3,2,1.41a48.07,48.07,0,0,0,2.88-10.2C101.55,65.76,101.13,63,99,61.3Z"/></g></g></svg>