<svg xmlns="http://www.w3.org/2000/svg" viewBox="0 0 30.72 17.54"><defs><style>.cls-1{fill:#3f3f3f;}</style></defs><g id="Layer_2" data-name="Layer 2"><g id="OBJECTS"><path class="cls-1" d="M29.79.23C28,3.16,24.43,4.05,21.47,5.36A13.27,13.27,0,0,0,17.34,8c-1.15,1.18-2.32,3.12-4.1,3.28-.44-.68-.13-1.72-.07-2.47a3.48,3.48,0,0,0-.56-2.46c-1.15-1.47-3.27-1-4.68-.21a16.12,16.12,0,0,0-4.79,4.66,18.4,18.4,0,0,0-1.82,3C.76,15,.51,16.3,0,17.48c0,.05.06.08.07,0A17.24,17.24,0,0,1,3,12.67,27.78,27.78,0,0,1,6.71,8.58c1-.93,2.56-2.14,4.08-1.87,1.69.3.91,2.54.88,3.67,0,1.32.53,2.49,2,2.3A5.89,5.89,0,0,0,17,10.54a14.67,14.67,0,0,1,3.27-3,28.81,28.81,0,0,1,3.87-1.78c2.68-1.1,5.51-2.27,6.54-5.19C30.88.07,30.08-.23,29.79.23Z"/></g></g></svg>