<svg xmlns="http://www.w3.org/2000/svg" viewBox="0 0 18.33 15.97"><defs><style>.cls-1{fill:#3f3f3f;}</style></defs><g id="Layer_2" data-name="Layer 2"><g id="OBJECTS"><path class="cls-1" d="M17.88,13.05a64.45,64.45,0,0,1-5.52-3.67c.55-.23,1.11-.47,1.67-.68A32.73,32.73,0,0,0,17.9,7.24a.74.74,0,0,0-.37-1.37,14.23,14.23,0,0,0-4.27,1.19c-.62.25-1.24.51-1.85.79A46.73,46.73,0,0,0,13.61,1,.85.85,0,0,0,12,.58C11,3,10,5.41,9,7.81a1,1,0,0,0-.08.28l-.06,0A10.2,10.2,0,0,0,7.84,6C7.19,4.77,6.47,3.59,5.76,2.39c-.5-.84-2-.28-1.64.69S4.9,5,5.31,6a12.59,12.59,0,0,1,1,2.56L.6,9.63c-.94.18-.71,1.67.22,1.65l4.37-.09c1,0,2.17-.12,2.67-1.19a.14.14,0,0,1,0-.06h0a23.25,23.25,0,0,1-1.19,5c-.31.86,1.12,1.48,1.51.63a40.78,40.78,0,0,0,1.89-5c1.26.71,2.51,1.42,3.75,2.15A26,26,0,0,0,17,14.58C18,15.07,18.9,13.59,17.88,13.05Z"/></g></g></svg>