<svg xmlns="http://www.w3.org/2000/svg" viewBox="0 0 73.83 79.59"><defs><style>.cls-1{fill:#5eead4;}</style></defs><g id="Layer_2" data-name="Layer 2"><g id="OBJECTS"><path class="cls-1" d="M67.39.65C65.62-.71,62.8.34,61,1.24A47,47,0,0,0,54.88,5.5c-2,1.46-4.27,2.92-6.83,3.07C44.92,8.75,42,7.34,39,6.69c-2.69-.58-5.48-.56-7.86,1C29,9,27.6,11,26.07,12.87s-3.25,3.76-5.74,4.05c-2.67.31-5.33-.94-7.85-1.65S7,14.21,4.8,16.05a13.83,13.83,0,0,0-3,4.54c-.5.95-1,1.9-1.43,2.87A4.46,4.46,0,0,0,0,26,.05.05,0,0,0,.12,26,4.81,4.81,0,0,0,1.73,24.8a18,18,0,0,0,1.34-2.39c.8-1.51,1.48-3.34,2.72-4.56,1.9-1.88,4.67-1.11,6.93-.42,2.45.75,5,1.73,7.61,1.49a9.27,9.27,0,0,0,5.81-3.09c1.63-1.7,2.91-3.71,4.62-5.33a7.77,7.77,0,0,1,7.31-1.95c2.87.57,5.59,1.75,8.53,2a11.85,11.85,0,0,0,7-1.8C56,7.36,58,5.51,60.3,4a13.43,13.43,0,0,1,3.26-1.68c1.23-.38,2.46-.21,3.68-.53A.63.63,0,0,0,67.39.65Z"/><path class="cls-1" d="M70.86,12.42c-.72,1.06-1.51,2.05-2.22,3.12A21.17,21.17,0,0,1,66,18.84a8.31,8.31,0,0,1-7.08,2.69c-3.07-.42-5.8-1.72-9-1.31a16.53,16.53,0,0,0-7.72,3.35,45.66,45.66,0,0,0-5.84,5.71c-2.06,2.2-4.35,4.19-7.48,4.45s-6.2-.68-9.3-.91A16.08,16.08,0,0,0,12,34.07,17.08,17.08,0,0,0,5.43,39c-1.55,1.92-3.3,4.65-2.69,7.22,0,.1.19.16.26.07,1.53-2,2.28-4.34,4-6.24A16,16,0,0,1,13,35.68,15.74,15.74,0,0,1,21.26,35c3,.44,6.08,1.17,9.14.58,5.71-1.1,8.55-6.91,12.88-10.16a14.06,14.06,0,0,1,7.78-3.13c3.07-.11,5.89,1.48,9,1.51a10.56,10.56,0,0,0,7.25-3.16,22.42,22.42,0,0,0,2.83-3.39,23.19,23.19,0,0,0,2.1-4A.78.78,0,0,0,70.86,12.42Z"/><path class="cls-1" d="M73.79,30c-.08-.52-.74-.54-1.06-.28a18.66,18.66,0,0,0-2,2.32,8.83,8.83,0,0,1-2.5,2,8.5,8.5,0,0,1-6.15.76c-1.18-.33-2.19-1.06-3.37-1.4a4.93,4.93,0,0,0-3.59.39,22.31,22.31,0,0,0-6.21,5.2c-3.53,3.84-7.47,9.18-13.21,9.38-3,.1-5.76-1.56-8.77-1.69a16.06,16.06,0,0,0-7.6,1.71A23.56,23.56,0,0,0,12.05,54c-2,2.26-4.28,4.88-5.35,7.75-.22.57.55.87.93.54,2.2-1.89,3.7-4.61,5.66-6.76a23.27,23.27,0,0,1,6.85-5.39,13.35,13.35,0,0,1,8.23-1.36c2.87.54,5.43,1.9,8.43,1.54,5.66-.68,9.56-5.22,13.19-9.17,1.78-1.94,3.83-4.3,6.31-5.37,1.37-.59,2.47.15,3.71.71a10,10,0,0,0,3.22.84,11.13,11.13,0,0,0,7-1.79C72,34.34,74.15,32.34,73.79,30Z"/><path class="cls-1" d="M73.23,49.07a.73.73,0,0,0-1.24,0c-.53.75-.83,1.64-1.44,2.35A6.19,6.19,0,0,1,68,53.07c-2.43.91-5.14.52-7.67.78a12.33,12.33,0,0,0-6.51,2.5,30.54,30.54,0,0,0-4.72,4.92,21,21,0,0,1-5.33,5c-2.5,1.46-4.75,1.33-7.33.15a14.65,14.65,0,0,0-6.79-1.69A15.77,15.77,0,0,0,23,66.66a22.06,22.06,0,0,0-6.2,5.22C15.06,74,13.13,76.36,12.28,79c-.16.52.49.8.85.49,2-1.71,3.35-4.19,5.09-6.17A20.83,20.83,0,0,1,24,68.4a12.42,12.42,0,0,1,7.61-1.54c2.53.39,4.5,2.17,7,2.71,5.06,1.11,9.2-2.85,12.18-6.39a28.18,28.18,0,0,1,4.9-5c2.25-1.6,4.73-1.82,7.41-1.89s5.36-.25,7.66-1.75C72.45,53.4,74.48,51.17,73.23,49.07Z"/></g></g></svg>