<svg xmlns="http://www.w3.org/2000/svg" viewBox="0 0 71.7 80.07"><defs><style>.cls-1{fill:#3f3f3f;}</style></defs><g id="Layer_2" data-name="Layer 2"><g id="OBJECTS"><path class="cls-1" d="M43.11,7.32A9.88,9.88,0,0,0,38.05.63,6.44,6.44,0,0,0,30.65,2C28.54,4,27.32,7,26.54,9.82a25.2,25.2,0,0,0-.74,9.7c.79,6.61,4.43,13.36,10.19,16.92a.59.59,0,0,0,.46.07,1.32,1.32,0,0,0,.21,1.85c1.26,1,2.27-.61,2.73-1.57a47.07,47.07,0,0,0,3.42-9.71,48.27,48.27,0,0,0,1.24-10A35.88,35.88,0,0,0,43.11,7.32Zm-1,12a45.5,45.5,0,0,1-1.61,8.82c-.42,1.44-.9,2.87-1.45,4.27-.3.74-.61,1.48-.95,2.2-.11.25-.23.5-.35.74s-.23.47-.35.7a1.35,1.35,0,0,0-.33,0l-.2.1a.57.57,0,0,0-.09-.77c-3.64-3.23-6.68-7-8.23-11.65a23.59,23.59,0,0,1,.32-15.58c.82-2.2,2-4.7,4.14-5.92C35.27,1,37.91,2,39.51,3.85S41.75,8.61,42,11.13A43.94,43.94,0,0,1,42.1,19.32Z"/><path class="cls-1" d="M30.41,39.17a36.34,36.34,0,0,0-2.51-3,43.31,43.31,0,0,0-5.42-5A38.22,38.22,0,0,0,9.15,24.21c-2.27-.6-4.85-.72-6.83.74A6.24,6.24,0,0,0,0,30.56c.47,5.1,5.7,8.09,10,9.81,6.27,2.53,13,2.34,19.55,1.38a.77.77,0,0,0,.4-.16,1.71,1.71,0,0,0,1.14.39.24.24,0,0,0,.22-.16C31.7,40.8,31,40,30.41,39.17Zm-17,.32A26.25,26.25,0,0,1,6.9,36.63C5.05,35.49,3.16,34,2.41,31.86c-.62-1.77-.37-4.11,1.3-5.22s4.23-.53,6.08.1a41.8,41.8,0,0,1,11.36,6.14,43.08,43.08,0,0,1,5.28,4.73c.73.77,1.42,1.57,2.09,2.39C23.5,40.68,18.36,40.88,13.44,39.49Z"/><path class="cls-1" d="M31.89,48c0-.5-.23-1-.85-.91-5.57.72-11.07,3.44-15.65,6.59a43.81,43.81,0,0,0-6.57,5.51,23.22,23.22,0,0,0-5,6.87c-2,4.67-.17,11.16,5.69,11.36,2.82.1,5.68-1.26,7.94-2.84a24.64,24.64,0,0,0,5.81-5.85A45.12,45.12,0,0,0,28.1,59.5c1.44-3.46,2.79-7,4.07-10.49A.82.82,0,0,0,31.89,48ZM13.1,74.61c-2.37.93-5.39,1.18-7-1.21A6.75,6.75,0,0,1,6,66.89,21.19,21.19,0,0,1,10.37,61,43.86,43.86,0,0,1,16,56.15a46.75,46.75,0,0,1,7.12-4.21,63.8,63.8,0,0,1,6.77-2.6C26.29,58.47,23.11,70.67,13.1,74.61Z"/><path class="cls-1" d="M56.84,67.18a30.37,30.37,0,0,0-8.48-14c-2-1.9-4.5-4-7.22-4.75,0-.39-.45-.54-.74-.4-2.36,1.08-3.44,4.62-4,7a21.17,21.17,0,0,0,7.32,22c2.1,1.67,4.7,3.23,7.49,3.13a6.52,6.52,0,0,0,5.7-4C58.12,73.22,57.63,70.05,56.84,67.18Zm-4.57,10.3c-2.28.81-4.82-.67-6.59-2a19.2,19.2,0,0,1-7.31-11.36,18.71,18.71,0,0,1,.1-8.19,20.62,20.62,0,0,1,1.38-4c.31-.65.63-1.27.89-1.91,1.61,1.25,3.37,2.28,4.91,3.64a29.86,29.86,0,0,1,4.49,4.91c2.67,3.67,4.94,8.37,5.15,13C55.4,73.83,54.66,76.62,52.27,77.48Z"/><path class="cls-1" d="M65.84,26.1c-4.72-.7-9.47,2.8-12.88,5.64a37.63,37.63,0,0,0-5.71,5.92A35.76,35.76,0,0,0,45,41c-.33.54-.64,1.09-.94,1.65a1.7,1.7,0,0,0-.31,1.14h-.16a.51.51,0,0,0-.13,1c.77.2,1.56.28,2.31.55a5.28,5.28,0,0,0,1.63.24c1.53,0,3.06,0,4.58,0a47.64,47.64,0,0,0,8.41-1.13c4.65-1.08,9.51-3.69,11-8.57C72.61,31.7,70.33,26.76,65.84,26.1Zm4,8.35c-.81,4.45-5.28,6.84-9.28,7.82a47,47,0,0,1-8.18,1.14c-1.46.09-2.92.12-4.39.1a26.44,26.44,0,0,0-2.68.12c.2-.34.38-.75.56-1.06.55-.91,1.14-1.79,1.75-2.65A36.16,36.16,0,0,1,51.79,35c2.91-2.84,6.6-5.76,10.56-6.91,2.07-.6,4.38-.55,6,1.08A6.08,6.08,0,0,1,69.81,34.45Z"/></g></g></svg>