<svg xmlns="http://www.w3.org/2000/svg" viewBox="0 0 23.07 13.4"><defs><style>.cls-1{fill:#3f3f3f;}</style></defs><g id="Layer_2" data-name="Layer 2"><g id="OBJECTS"><path class="cls-1" d="M9.08,1.73a5.33,5.33,0,0,0-2.63.42c-.89.26-1.77.55-2.63.89l-.11,0C3.48,2.2,3.3,1.31,3.1.42A.52.52,0,0,0,2.72,0a.34.34,0,0,0-.26,0L2.3.09A.55.55,0,0,0,2,.56a13.88,13.88,0,0,0,.39,3.07l-1,.49a6,6,0,0,0-1.13.64A.56.56,0,0,0,0,5.29s0,.12,0,.16c.44.32.71.16,1.19,0s.7-.29,1.05-.43l.46-.18c.15.5.31,1,.5,1.49a7.08,7.08,0,0,0,.95,1.93c.49.59,1.39-.05,1.22-.71a13.49,13.49,0,0,0-.77-1.75c-.2-.48-.37-1-.54-1.46l.46-.16c.78-.25,1.55-.49,2.34-.69a6.67,6.67,0,0,0,2.32-.7A.58.58,0,0,0,9.08,1.73Z"/><path class="cls-1" d="M22.86,9.62a4.07,4.07,0,0,0-2.14-.25c-.79,0-1.58,0-2.37,0h-.16c-.05-.21-.09-.43-.14-.64-.15-.62-.3-1.25-.48-1.86,0,0-.07-.32-.13-.5v0l0,0a.17.17,0,0,0,.24-.13c0-.41-.45-.44-.7-.24,0,0-.1.06-.12.11v0a.6.6,0,0,0-.37.39,3.14,3.14,0,0,0,.07,1.18c.07.6.17,1.19.27,1.78l-.81,0c-.38,0-.76.06-1.14.11-.14,0-.29,0-.43.06s-.5.26-.62.27a0,0,0,1,0,0,.09c.11,0,.38.21.53.25a3.12,3.12,0,0,0,.52.08c.35,0,.7.09,1.06.11l1.07,0c.07.38.14.76.22,1.15a6.77,6.77,0,0,0,.35,1.41.66.66,0,0,0,1.23-.34,10,10,0,0,0-.37-2.08.19.19,0,0,1,0-.08c.72,0,1.44,0,2.17,0a4.3,4.3,0,0,0,2.23-.25A.44.44,0,0,0,22.86,9.62Z"/></g></g></svg>