<svg xmlns="http://www.w3.org/2000/svg" viewBox="0 0 20.29 13.25"><defs><style>.cls-1{fill:#3f3f3f;}</style></defs><g id="Layer_2" data-name="Layer 2"><g id="OBJECTS"><path class="cls-1" d="M11.56,1.11A3.33,3.33,0,0,0,9.91,2.23L8.51,3.61c-1,.95-1.91,1.9-2.85,2.86A71.19,71.19,0,0,0,.18,12.25a.57.57,0,0,0-.15.57c.05.12.09.26.21.32l.06,0a.57.57,0,0,0,.59,0A70.18,70.18,0,0,0,7,8c1-.87,1.95-1.75,2.92-2.63l1.54-1.4A3.39,3.39,0,0,0,12.7,2.26.94.94,0,0,0,11.56,1.11Z"/><path class="cls-1" d="M18.6.18a52.91,52.91,0,0,0-5.49,4.76,30.42,30.42,0,0,0-2.47,2.48c-.39.45-.78.91-1.14,1.38a7.69,7.69,0,0,0-.93,1.59.23.23,0,0,0,.32.32,9,9,0,0,0,1.44-.92c.45-.36.87-.73,1.31-1.1.93-.76,1.8-1.59,2.7-2.38,1.8-1.56,3.75-2.9,5.61-4.38C20.92,1.14,19.63-.55,18.6.18Z"/></g></g></svg>