<svg xmlns="http://www.w3.org/2000/svg" viewBox="0 0 104.85 68.59"><defs><style>.cls-1{fill:#3f3f3f;}</style></defs><g id="Layer_2" data-name="Layer 2"><g id="OBJECTS"><path class="cls-1" d="M101.82.81a1.14,1.14,0,0,0-2.18,0c-.48,2.5-2.07,5.21-4.82,5.64a5.21,5.21,0,0,1-5.63-4.08,1.67,1.67,0,0,0-3-.4A96.81,96.81,0,0,1,77.66,14c-.5.6-1.08,1.49-2,1.2a8.55,8.55,0,0,1-2.51-1.85A34.67,34.67,0,0,1,68.33,8.2a1.68,1.68,0,0,0-2.61-.33,35.12,35.12,0,0,0-4.2,6.51c-1.14,2.06-2.41,4.25-4.51,5.47C51.7,22.92,45.36,18,41.44,14.75a1.71,1.71,0,0,0-2.65.34,52.15,52.15,0,0,1-5.42,8.43,44.94,44.94,0,0,1-3.23,3.66c-1.06,1.05-2.3,2-3.88,1.82-3-.34-5.06-3.17-6.76-5.33-1.83-2.33-3.76-4.51-6.63-5.53a1.34,1.34,0,0,0-1.34.36,58.91,58.91,0,0,0-6.77,8.19A33.35,33.35,0,0,0,0,36c-.1.36.41.71.68.39,2.14-2.62,3.91-5.51,6-8.16,1.94-2.45,4-4.82,6.12-7.06,2.55,1.3,4.16,4.06,5.88,6.22,2,2.56,5.1,5.07,8.59,4.82S33.47,28.63,35.6,26a52.32,52.32,0,0,0,5.17-7.53c4.68,3.63,10.74,7.18,16.59,4.81,5.16-2.09,6.64-7.43,9.57-11.62a36.74,36.74,0,0,0,4.41,4.41c2,1.69,4.51,3.53,7.1,1.74a14,14,0,0,0,2.74-3q1.36-1.72,2.69-3.51C85.1,9.69,86.25,8,87.38,6.23a8.53,8.53,0,0,0,8,3.48C99.45,9.1,102.93,4.94,101.82.81Z"/><path class="cls-1" d="M102.46,24c-2.07,2.7-7.08,2.63-8.51-.61a1.71,1.71,0,0,0-2.94,0C89.3,26.7,87.27,31,83.58,32.37c-2.48.94-6.3.27-7-2.69a1.76,1.76,0,0,0-3.18-.41c-1.33,2.52-2.68,5.14-4.9,7-1.71,1.44-4.32,2.34-6.47,1.36s-3.23-3.87-5.89-4.31c-3.13-.51-4.31,2.63-5.44,4.9-1.25,2.5-2.69,5.23-5,6.86-2,1.35-4.71,2.13-6.88.85-3.42-2-4.61-7.13-8.8-8-3.05-.65-5.46,1.75-7.59,3.54q-2.09,1.74-4,3.61a16.11,16.11,0,0,0-3.61,4.21.44.44,0,0,0,.6.6A18.39,18.39,0,0,0,19.12,47c1.26-1.1,2.55-2.16,3.86-3.2s2.36-1.91,3.62-2.73a3.36,3.36,0,0,1,3.28-.59c1.69.76,2.74,2.79,3.78,4.22,1.37,1.9,2.9,3.72,5.18,4.52,5.68,2,10.78-2.53,13.45-7.07.75-1.27,1.4-2.61,2.06-3.93.4-.8.75-2.06,1.77-1.4a17.1,17.1,0,0,1,2.41,2.33,7.76,7.76,0,0,0,3.74,2A10.34,10.34,0,0,0,70.72,39,18.46,18.46,0,0,0,75,33.72a9.46,9.46,0,0,0,8.76,2.22c4.27-1,7-4.79,9-8.53,3.62,3.06,10.33,2.53,12-2.4C105.28,23.54,103.26,23,102.46,24Z"/><path class="cls-1" d="M104.58,41.69a.93.93,0,0,0-.92-.92c-1.62-.05-2.5,1.15-3.58,2.2a12.71,12.71,0,0,1-3.38,2.64c-1.5.71-4.58.52-4.52-1.74A1.74,1.74,0,0,0,89,43c-1.87,3.46-4,7.67-7.71,9.44-2.65,1.26-6.51.94-8-1.89a1.77,1.77,0,0,0-3,0c-1.3,2.94-2.63,6-5.1,8.18-2.22,1.93-5.17,2.59-7.78,1a9.77,9.77,0,0,1-3-2.86c-.78-1.14-1.38-2.56-2.83-3a4.35,4.35,0,0,0-3.95,1.17c-1.45,1.17-2.77,2.51-4.14,3.77-1.53,1.41-3.08,2.8-4.59,4.22-.81.76-1.62,1.53-2.4,2.32a22.89,22.89,0,0,0-1.9,2.39c-.34.45.3,1,.73.74a20,20,0,0,0,2.1-1.25c.82-.64,1.63-1.3,2.44-2,1.49-1.23,2.94-2.51,4.41-3.77l4.4-3.79c.44-.38,1.17-1.17,1.8-1.18s.9.91,1.18,1.36a12.19,12.19,0,0,0,6.49,5.55A9.78,9.78,0,0,0,67,61.61a18.75,18.75,0,0,0,5.22-7A10.26,10.26,0,0,0,81.82,56c4-1.43,6.52-4.78,8.57-8.33A6.87,6.87,0,0,0,96,49.34a10.59,10.59,0,0,0,5.1-2.7C102.54,45.43,104.73,43.68,104.58,41.69Z"/></g></g></svg>