<svg xmlns="http://www.w3.org/2000/svg" viewBox="0 0 73.17 83"><defs><style>.cls-1{fill:#3f3f3f;}</style></defs><g id="Layer_2" data-name="Layer 2"><g id="OBJECTS"><path class="cls-1" d="M14.51,21.41c-.09-2.3-.19-4.61-.39-6.9-.17-2,0-4.63-1-6.44a.49.49,0,0,0-.89.12C11.56,9.89,12,12,12,13.82,12,15.89,12,18,12,20c0,4,0,8-.18,12C11.54,40,11,48.05,10,56.05c-.28,2.29-.6,4.58-.92,6.86s-1,4.58-.8,6.79a1.38,1.38,0,0,0,2.54.69A8,8,0,0,1,12,69.21.75.75,0,0,0,11.55,68c.23-1.15.37-2.34.54-3.49.31-2,.57-4.08.81-6.13Q13.62,52.17,14,46A228.91,228.91,0,0,0,14.51,21.41Z"/><path class="cls-1" d="M21.85,3.43c-.07-.39-.6-.32-.71,0a28.91,28.91,0,0,0-1,6.63c-.23,2.34-.4,4.68-.58,7-.36,4.75-.75,9.5-1.11,14.25-.71,9.43-1.36,18.85-1.86,28.29-.14,2.57-.29,5.14-.4,7.71-.05,1.33-.08,2.65-.09,4A8.23,8.23,0,0,0,16.58,75a.78.78,0,0,0,1.34,0c1.08-1.79.91-4.44,1.06-6.47.17-2.33.26-4.67.38-7q.38-7.12.73-14.26c.48-9.43.91-18.85,1.41-28.28.13-2.57.31-5.14.43-7.71A33.34,33.34,0,0,0,21.85,3.43Z"/><path class="cls-1" d="M30.78.09a.09.09,0,0,0-.18,0C29.38,5.31,29,10.81,28.38,16.16S27.13,27,26.63,32.46c-1,10.84-2.28,21.7-2.9,32.57a83.16,83.16,0,0,0-.06,9.07c.15,2.75.16,6.08,1.56,8.52a.8.8,0,0,0,1.45-.19c.52-2.46,0-5.15,0-7.65s-.05-5.29.05-7.94c.21-5.33.65-10.66,1.07-16,.84-10.79,1.73-21.57,2.35-32.37.18-3,.32-6.06.48-9.09A87.67,87.67,0,0,0,30.78.09Z"/><path class="cls-1" d="M37.88,6.26a.56.56,0,0,0-1.1-.14A36.33,36.33,0,0,0,35.3,13.3c-.38,2.38-.71,4.76-1,7.14-.65,4.88-1.13,9.78-1.52,14.7a290.38,290.38,0,0,0-.84,29.5A100.86,100.86,0,0,0,33.13,81c.21,1.15,1.89.81,1.95-.26.25-4.83-.09-9.69-.2-14.52s-.15-9.68-.08-14.52c.14-9.69.74-19.35,1.56-29q.36-4.12.8-8.25A54,54,0,0,0,37.88,6.26Z"/><path class="cls-1" d="M45.66,5.86c0-.8-.28-1.55-.32-2.35,0-.19-.33-.26-.36,0-.16,1.12-.55,2.18-.67,3.33-.13,1.32-.2,2.66-.32,4-.22,2.57-.37,5.16-.54,7.74q-.51,7.62-1,15.24-1,15.36-1.65,30.73c-.12,2.82-.22,5.63-.34,8.45s-.47,6,.34,8.64a.75.75,0,0,0,1.43,0c.91-2.27.91-5.06,1.06-7.47s.26-5,.39-7.51c.27-5.08.46-10.16.68-15.24.44-10.16.75-20.33,1-30.5.07-2.81.16-5.63.22-8.44,0-1.49,0-3,.05-4.46C45.68,7.27,45.7,6.57,45.66,5.86Z"/><path class="cls-1" d="M55.46,9c0-.25-.39-.21-.46,0a33.22,33.22,0,0,0-1,6.37c-.26,2.27-.53,4.52-.77,6.79q-.69,6.66-1.25,13.33c-.77,9-1.56,17.93-2.15,26.9-.17,2.57-.33,5.15-.45,7.72a35,35,0,0,0,.17,7.45c.13.76,1.22.63,1.42,0A30.52,30.52,0,0,0,52.06,71c.23-2.26.45-4.52.63-6.79.36-4.44.65-8.89,1-13.33Q54.6,37.44,55.26,24c.13-2.57.2-5.15.29-7.72A38.79,38.79,0,0,0,55.46,9Z"/><path class="cls-1" d="M64.28,20.56a69,69,0,0,1,.29-7.47c0-.19-.25-.28-.29-.09-.48,2.06-1,4.15-1.25,6.24s-.27,4-.39,5.92c-.25,4.28-.45,8.56-.64,12.84q-.55,12.87-.84,25.74-.09,3.51-.13,7c0,2.29-.25,4.83.7,7a.83.83,0,0,0,1.43,0c.87-1.78.84-3.86.91-5.8.09-2.1.12-4.21.15-6.32q.11-6.31.14-12.63c.06-8.43.06-16.85-.06-25.27C64.27,25.32,64.21,23,64.28,20.56Z"/><path class="cls-1" d="M73.06,33.05c-.09-4.6-.31-9.21-.56-13.81a.05.05,0,0,0-.1,0Q71,43.11,69.33,67c-.15,2.18-.31,4.36-.41,6.54s-.54,4.74.23,6.78a.93.93,0,0,0,1.68.22c.92-1.63,1-3.78,1.14-5.6s.35-3.89.46-5.84c.23-4,.47-8.1.57-12.15Q73.32,45,73.06,33.05Z"/><path class="cls-1" d="M4.26,23.2a.3.3,0,0,0-.52,0C2.86,24.53,3,26.45,2.86,28c-.14,1.7-.28,3.4-.4,5.1-.28,3.63-.52,7.26-.83,10.88S1.05,51.07.7,54.61C.52,56.38.36,58.14.22,59.92c-.14,1.59-.47,3.69.1,5.21a.54.54,0,0,0,1,.13c.91-1.35,1.07-3.45,1.29-5S3,56.8,3.2,55.07c.36-3.62.7-7.24,1-10.87s.47-7.09.57-10.65c0-1.85.09-3.71.09-5.56C4.81,26.45,5.06,24.58,4.26,23.2Z"/></g></g></svg>