<svg xmlns="http://www.w3.org/2000/svg" viewBox="0 0 23.75 14.44"><defs><style>.cls-1{fill:#3f3f3f;}</style></defs><g id="Layer_2" data-name="Layer 2"><g id="OBJECTS"><path class="cls-1" d="M23.56.63a6,6,0,0,0-6.11.49,6.36,6.36,0,0,0-2.17,2.35,17,17,0,0,1-1.41,3.06C12.22,8.54,9.69,5,8.31,4.19A5,5,0,0,0,2.26,5.26C0,7.49-.07,10.93,0,13.89a.57.57,0,0,0,1.14,0c.05-3.14.09-7.28,3.47-8.76,3.05-1.34,4.48,2,6.91,3a2.76,2.76,0,0,0,2.92-.47c1-.88,1.21-2.23,1.74-3.38,1.24-2.68,4.35-3.6,7.07-3A.38.38,0,0,0,23.56.63Z"/></g></g></svg>