<svg xmlns="http://www.w3.org/2000/svg" viewBox="0 0 16.48 14.12"><defs><style>.cls-1{fill:#3f3f3f;}</style></defs><g id="Layer_2" data-name="Layer 2"><g id="OBJECTS"><path class="cls-1" d="M16.2,10.91a13.58,13.58,0,0,0-3.76.67l-.18-.33a20.92,20.92,0,0,0-1.08-1.83L11,9.15l2.15-3c.35-.48-.3-1-.74-.74L9.33,7c-.27-.32-.53-.65-.81-1s-.3-.31-.45-.47A32.92,32.92,0,0,0,10.53.83.56.56,0,0,0,9.91,0,36.93,36.93,0,0,0,3.75,2l-.16-.1a7.67,7.67,0,0,0-1-.52,1.66,1.66,0,0,0-.35-.13c-.17,0-.52,0-.63,0a.07.07,0,0,0-.07.12c.13.09.16.34.27.47a4.71,4.71,0,0,0,.41.35l.45.34A20.73,20.73,0,0,0,.18,4a.37.37,0,0,0,.37.64c1-.46,2.07-.91,3.1-1.34.3.24.61.46.9.71a27.29,27.29,0,0,1,2,1.88A33.69,33.69,0,0,1,3.43,9.93a.54.54,0,0,0,.65.84L8.77,8.44c.23.32.44.66.66,1C8.5,10.72,7.56,12,6.62,13.29c-.3.41.19.93.63.82L11.47,13a1.21,1.21,0,0,0,.74.53.46.46,0,0,0,.49-.2,1.13,1.13,0,0,0,.14-.68,13.45,13.45,0,0,0,3.5-1.22A.29.29,0,0,0,16.2,10.91ZM5.41,3.17l-.53-.38A38.18,38.18,0,0,1,9.07,1.38,35,35,0,0,1,7.26,4.74,23.22,23.22,0,0,0,5.41,3.17Zm.46,5.51c.51-.65,1-1.32,1.46-2l.19.2c.2.23.37.47.56.7ZM10,7.81l.91-.45-.62.85ZM8.45,12.64l1.62-2.23c.3.5.59,1,.85,1.51L11,12Z"/></g></g></svg>