<svg xmlns="http://www.w3.org/2000/svg" viewBox="0 0 82.88 70.85"><defs><style>.cls-1{fill:#3f3f3f;}</style></defs><g id="Layer_2" data-name="Layer 2"><g id="OBJECTS"><path class="cls-1" d="M81.51,13.65C78.63,6.79,71.94,1,64.42.1S50.56,3.94,46.33,9.56C41.46,16,39.28,24.18,37.62,32c0,.23-.09.46-.14.68L31.18,32c-2.31-.25-4.57-.48-6.89-.53-1.35,0-1.71,2.14-.32,2.42,4.25.85,8.61,1.21,12.93,1.66-1.34,6.86-2.52,13.85-5.2,20.31-2.63,6.31-7.63,12.81-15.18,12.4-7.92-.43-13.34-7.48-14-15A20.42,20.42,0,0,1,5,41.55a15.89,15.89,0,0,1,8.83-7.06,15.22,15.22,0,0,1,2.41-.62c.93-.15,1.77-.49,2.7-.67.18,0,.15-.29,0-.34a9.58,9.58,0,0,0-2.38-.61,12.44,12.44,0,0,0-2.72.28,15.11,15.11,0,0,0-5.1,1.93A17.19,17.19,0,0,0,1.6,43c-2.87,7.1-1.9,15.89,3,21.83,4.59,5.52,12.64,7.72,19.18,4.57s9.89-10.32,11.93-16.81a160,160,0,0,0,3.87-16.75c4,.46,8.09.94,12.15,1.2,8,.51,17.06.06,23.95-4.61a16.37,16.37,0,0,0,6.42-7.85A15.19,15.19,0,0,0,81.51,13.65ZM78.9,25.21c-3.77,6.89-12.86,8.75-20,9a99.13,99.13,0,0,1-13.56-.71L40.22,33c.36-1.69.73-3.38,1.15-5.05,1.91-7.55,4.77-15.28,10.7-20.61a17,17,0,0,1,9.17-4.5A15.39,15.39,0,0,1,71.72,5.74C77.56,9.75,82.72,18.23,78.9,25.21Z"/></g></g></svg>