<svg xmlns="http://www.w3.org/2000/svg" viewBox="0 0 19.4 16.84"><defs><style>.cls-1{fill:#3f3f3f;}</style></defs><g id="Layer_2" data-name="Layer 2"><g id="OBJECTS"><path class="cls-1" d="M18.8,12.68a8.13,8.13,0,0,0,.55-3.54C19,7,17,6.33,15.1,6.85c-.93.26-1.79.69-2.69,1-.65.24-1.59.61-2.25.19-.94-.6-.52-2.18-.42-3.07A4.5,4.5,0,0,0,9.09,1.6,4.52,4.52,0,0,0,5.74,0,8.9,8.9,0,0,0,3.28.29c-.51.12-1,.27-1.51.41-.16,0-.33.1-.5.13a.58.58,0,0,1-.54,0C.55.85.55.78.71.64a.15.15,0,0,0,0-.29C.08.17-.23,1.14.19,1.56a1.83,1.83,0,0,0,1.56.27c1-.12,1.92-.37,2.89-.45,1.42-.12,3.38.29,3.62,2C8.44,4.67,7.85,6,8,7.27c.26,2.45,2.6,2.94,4.59,2.27,1.15-.38,4.63-2.48,5.16-.31.34,1.42-.68,3-.85,4.38a3.92,3.92,0,0,0,.23,2.09,2,2,0,0,0,1.42,1.11c.5.17.82-.5.49-.85C18.27,15.15,18.52,13.62,18.8,12.68Z"/></g></g></svg>