<svg xmlns="http://www.w3.org/2000/svg" viewBox="0 0 9.45 10.72"><defs><style>.cls-1{fill:#3f3f3f;}</style></defs><g id="Layer_2" data-name="Layer 2"><g id="OBJECTS"><path class="cls-1" d="M8.94,3.26A5.87,5.87,0,0,0,6.36.65C5.32.11,3.56-.41,2.58.48a.51.51,0,0,0-.05.68A6.67,6.67,0,0,0,.56,4a5.06,5.06,0,0,0-.37,3.6A4.57,4.57,0,0,0,2.11,10,4.62,4.62,0,0,0,7.9,9.37,5.47,5.47,0,0,0,8.94,3.26ZM7.33,7.39A3.1,3.1,0,0,1,3.92,9.16a3.13,3.13,0,0,1-2.6-3A7.47,7.47,0,0,1,2.5,2.9a3.81,3.81,0,0,1,.79-1.07l.2-.19A11,11,0,0,1,5,2,5,5,0,0,1,6.91,3.36,3.66,3.66,0,0,1,7.33,7.39Z"/></g></g></svg>