<svg xmlns="http://www.w3.org/2000/svg" viewBox="0 0 81.15 61.29"><defs><style>.cls-1{fill:#3f3f3f;}</style></defs><g id="Layer_2" data-name="Layer 2"><g id="OBJECTS"><path class="cls-1" d="M76.8,13.15A83.78,83.78,0,0,0,69.15.65a1.27,1.27,0,0,0-2.21,0A71.27,71.27,0,0,1,57,13.59c-2.12-2.89-4.21-5.83-6.37-8.69-.92-1.2-2.12-2.4-3.69-2.33s-2.61,1.62-3.43,3l-3.13,5.19-1.57,2.59c-.24.41-.91,2-1.43,2.12s-1-1-1.25-1.37l-1.58-2.51L31.22,6.36a1.27,1.27,0,0,0-2-.28c-3,3.36-6,6.66-8.87,10.08-2-3.63-3.86-7.33-5.79-11A1,1,0,0,0,13,5q-2.51,2.68-5.2,5.15C6.06,11.67,4.15,13,2.82,15a.33.33,0,0,0,.36.48c2.2-.73,3.94-2.37,5.71-3.9,1.55-1.34,3-2.74,4.51-4.19,1.91,3.84,3.86,7.66,5.68,11.55a1.16,1.16,0,0,0,1.87.25c3.08-3.22,6-6.6,9-9.94l2.44,3.87c.9,1.43,1.73,3.22,3,4.34,3.26,2.88,5.64-2.72,7-5L45.59,7.1c.3-.49.76-1.67,1.36-1.8s1.3.84,1.63,1.25c2.56,3.21,4.94,6.62,7.37,9.93a1.2,1.2,0,0,0,1.76,0A74.43,74.43,0,0,0,68.08,3.71c1.8,2.72,3.44,5.53,5.08,8.36a.67.67,0,0,0,.11.6l1.31,1.84A1.3,1.3,0,0,0,76.8,13.15Z"/><path class="cls-1" d="M76.61,32.3A26.48,26.48,0,0,0,72.33,26,45.94,45.94,0,0,0,67,20.54a1.4,1.4,0,0,0-2.22.3c-1.55,2.22-3.11,4.44-4.66,6.67s-3,4.66-4.73,6.69c-.19.23-.61.78-1,.68s-.77-.93-1-1.17c-.78-1.08-1.56-2.16-2.35-3.23l-4.83-6.63c-.47-.65-1.53-1.1-2.14-.29l-7.47,10c-.66.89-1.3,1.81-2,2.67-.47.58-.72.89-1.32.29a13.07,13.07,0,0,1-1.51-2.14c-.59-.89-1.18-1.79-1.78-2.68L28.34,29a5.92,5.92,0,0,0-1.49-1.76c-1.55-1-2.89.15-4,1.25-2.62,2.59-5.25,5.17-7.85,7.8a35.87,35.87,0,0,1-4.67-9.57,1,1,0,0,0-1.49-.64A53.67,53.67,0,0,0,4,29.81a17.24,17.24,0,0,0-4,4.49.38.38,0,0,0,.51.53A46.3,46.3,0,0,0,5.1,31.28c1.18-.94,2.41-1.8,3.67-2.63a37.56,37.56,0,0,0,5,10.22,1.21,1.21,0,0,0,1.92.26c3-2.8,5.87-5.69,8.8-8.55.19-.19.72-.93,1-.94a5.88,5.88,0,0,1,.55.76l1.65,2.51c1.09,1.66,2.11,3.39,3.29,5,.92,1.24,2.28,2.22,3.83,1.71S37.51,37,38.5,35.74l6.65-8.85,4.53,6.23c1.44,2,3.23,5.74,6.13,4.38a8,8,0,0,0,2.8-2.9l2.84-4c1.6-2.27,3.21-4.54,4.81-6.82a47.47,47.47,0,0,1,3.95,4.19c1.58,1.91,2.83,4.08,4.39,6C75.62,35.21,77.15,33.59,76.61,32.3Z"/><path class="cls-1" d="M79.61,50.42a.66.66,0,0,0-.37,0c-.66-.73-1.35-1.43-2-2.14-1.22-1.32-2.43-2.65-3.64-4a1.46,1.46,0,0,0-2.12,0L63.29,53.5l-3.45-5.84c-1.09-1.84-2.83-5.82-5.41-3.76A22.33,22.33,0,0,0,51.69,47l-2.88,3.34L43.93,56a78.38,78.38,0,0,1-6.77-9.45,1.4,1.4,0,0,0-2.24-.31Q29.37,52.08,23.85,58a19.87,19.87,0,0,1-6.68-7.92,6.11,6.11,0,0,0-1.83-2.76,2.43,2.43,0,0,0-2.82.24c-1.2.84-2.29,1.89-3.42,2.83-2.44,2-4.8,4.16-7.21,6.22-.67.58.23,1.83.93,1.28C5,56.11,7.28,54.43,9.48,52.65L12.69,50c.33-.26.92-1,1.34-.74s.52.84.67,1.17A23.49,23.49,0,0,0,23.34,61.1,1.34,1.34,0,0,0,25,60.87q5.35-5.61,10.7-11.24a83.21,83.21,0,0,0,7.18,9.67,1.4,1.4,0,0,0,2,0q4.89-5.65,9.77-11.3l1.11-1.27,0,0c.09.15.2.31.22.34.64,1.08,1.27,2.17,1.91,3.26,1.27,2.17,2.54,4.35,3.82,6.52a1.45,1.45,0,0,0,2.32.32q4.22-4.71,8.45-9.41L75,50.38a43.83,43.83,0,0,0,3.53,3.79,1.43,1.43,0,0,0,2.29-.31A2.25,2.25,0,0,0,79.61,50.42Z"/></g></g></svg>