<svg xmlns="http://www.w3.org/2000/svg" viewBox="0 0 68.04 65.54"><defs><style>.cls-1{fill:#5eead4;}</style></defs><g id="Layer_2" data-name="Layer 2"><g id="OBJECTS"><path class="cls-1" d="M31,26c-2.52-3.77-5-7.55-7.14-11.55A129.08,129.08,0,0,1,18.33,2.27C17.79.94,16.62-.54,15,.2c-1.42.65-2.53,2.7-3.35,4A64.5,64.5,0,0,0,6.53,14.75C4.81,18.91,3.06,23.14.25,26.69a1.13,1.13,0,0,0,0,1.42,1,1,0,0,0,.38.57,1.43,1.43,0,0,0,1,.27,21.47,21.47,0,0,0,2.65.13q1.86,0,3.72.06,3.6,0,7.2-.09,7.31-.24,14.58-.94A1.4,1.4,0,0,0,31,26Zm-16,.68c-2.32.11-4.65.17-7,.2-1.24,0-2.48,0-3.72,0-.53,0-1.08,0-1.63,0C6.55,21.47,8.43,15,11.33,9.09A37.11,37.11,0,0,1,14,4.46a8.34,8.34,0,0,1,1.6-2.1c.41-.27.45-.14.67.3a14.26,14.26,0,0,1,.53,1.51,103.27,103.27,0,0,0,4.74,11.22,87,87,0,0,0,5.9,10.26C23.3,26.16,19.16,26.51,15,26.71Z"/><path class="cls-1" d="M46.51,60.19q-2.84-5.41-5.94-10.69A117,117,0,0,0,33,37.66a1.46,1.46,0,0,0-2.48,0c-2.65,4.05-5.65,7.89-8.45,11.83-1.36,1.91-2.73,3.82-4.06,5.75s-3.08,3.9-3.58,6.18a.49.49,0,0,0,.72.55c1.94-1.18,3.21-3.41,4.55-5.2s2.8-3.78,4.2-5.67c2.53-3.41,5-6.91,7.68-10.22,2,3.34,4.23,6.6,6.22,10C39,52.8,40.1,54.76,41.2,56.74c.55,1,1.1,2,1.63,3l.86,1.6a2.94,2.94,0,0,0,.18.3L42,61.69l-3.72.16c-2.49.11-5,.22-7.46.35-4.7.24-9.71,1-14.38.19-1.58-.27-2.29,2-.68,2.44,3.84,1.06,7.87.66,11.8.5q6.29-.24,12.58-.53l3-.14a13.13,13.13,0,0,0,2.87-.22,1.9,1.9,0,0,0,1.39-1.66A4.9,4.9,0,0,0,46.51,60.19Z"/><path class="cls-1" d="M68,32.5A169.6,169.6,0,0,0,55.3,5a1.53,1.53,0,0,0-2.62,0C50.09,9.35,47.52,13.72,45,18.13c-1.2,2.14-2.4,4.29-3.55,6.46-.61,1.15-1.22,2.31-1.8,3.48s-1,1.83-.67,3a.57.57,0,0,0,.69.39,2.89,2.89,0,0,0,.5-.21.53.53,0,0,0,.11.09C42,32.3,44.18,32,46,32c2.25.11,4.51.27,6.76.48C57.24,33,61.66,33.6,66,34.41,67.1,34.61,68.38,33.71,68,32.5ZM47,29.35a31.64,31.64,0,0,0-5.07-.07c.63-1,1.24-2.06,1.85-3.1C45,24,46.3,21.81,47.58,19.62,49.69,16,51.8,12.41,54,8.82A170.44,170.44,0,0,1,64.07,30.94c-3.5-.56-7-1-10.57-1.25C51.32,29.52,49.15,29.41,47,29.35Z"/></g></g></svg>