<svg xmlns="http://www.w3.org/2000/svg" viewBox="0 0 85.97 85.97"><defs><style>.cls-1{fill:#3f3f3f;}</style></defs><g id="Layer_2" data-name="Layer 2"><g id="OBJECTS"><path class="cls-1" d="M63.13,1.85a7.22,7.22,0,0,0-3,1.93L56.63,6.7c-2.08,1.76-4.16,3.52-6.22,5.3Q44,17.46,37.76,23.05c-8.36,7.44-16.64,15-24.68,22.78q-3.44,3.31-6.82,6.66c-2.1,2.07-4.79,4.15-6.21,6.76a.37.37,0,0,0,.5.5c2.33-1.23,4.2-3.47,6.09-5.27s4.07-3.85,6.11-5.76c4.1-3.83,8.19-7.65,12.32-11.43q12.21-11.2,24.79-22,3.62-3.12,7.25-6.19l3.48-2.92c1.19-1,2.69-1.88,3.31-3.32A.69.69,0,0,0,63.13,1.85Z"/><path class="cls-1" d="M71,12.58a10,10,0,0,0-3.44,2.1l-3.63,2.74-7,5.39Q50.11,28,43.42,33.37,29.76,44.3,16.56,55.81c-2.51,2.19-5,4.39-7.47,6.64a48.2,48.2,0,0,0-6.75,6.8c-.11.16.1.34.25.25a46.38,46.38,0,0,0,6.74-5.2l6.59-5.6Q22.6,53,29.35,47.45c9-7.36,18-14.66,27.15-21.76q3.95-3,7.93-6,2-1.51,4-3a11.85,11.85,0,0,0,3.38-3A.74.74,0,0,0,71,12.58Z"/><path class="cls-1" d="M78.21,16.51Q50.09,38.7,23.15,62.3,19.34,65.63,15.57,69c-1.2,1.07-2.38,2.16-3.56,3.24-.63.57-1.24,1.14-1.84,1.74a2.43,2.43,0,0,0-.95,1.74.13.13,0,0,0,.13.16c1.31,0,2-.84,3-1.67l3.5-3c2.2-1.89,4.38-3.82,6.58-5.72q6.87-5.94,13.8-11.79Q50,42.07,64.05,30.75q7.86-6.34,15.81-12.59C81,17.23,79.38,15.59,78.21,16.51Z"/><path class="cls-1" d="M84.19,24.86a55.17,55.17,0,0,0-7,5.45l-6.78,5.61c-4.51,3.73-9,7.5-13.48,11.26-9,7.57-18.16,15-27,22.78-5,4.36-10.15,8.58-14.86,13.23-.43.42.14,1.21.65.85C20.46,80.71,25,77,29.54,73.32S38.68,66,43.21,62.24c9.11-7.5,18.26-15,27.32-22.51l7.66-6.39c2.51-2.09,5.32-4.1,7.47-6.58A1.22,1.22,0,0,0,84.19,24.86Z"/><path class="cls-1" d="M84.12,63.13a7.22,7.22,0,0,0-1.93-3l-2.92-3.48c-1.76-2.08-3.52-4.16-5.3-6.22q-5.46-6.37-11-12.65c-7.44-8.36-15-16.64-22.78-24.68q-3.31-3.44-6.66-6.82c-2.07-2.1-4.16-4.79-6.76-6.21a.37.37,0,0,0-.5.5c1.23,2.33,3.47,4.2,5.27,6.09s3.85,4.07,5.76,6.11c3.83,4.1,7.64,8.19,11.43,12.32q11.19,12.21,22,24.79,3.1,3.62,6.19,7.25l2.92,3.48c1,1.19,1.88,2.69,3.32,3.31A.7.7,0,0,0,84.12,63.13Z"/><path class="cls-1" d="M73.39,71a10.13,10.13,0,0,0-2.1-3.44l-2.74-3.63q-2.68-3.52-5.4-7-5.2-6.76-10.55-13.45Q41.67,29.76,30.16,16.56c-2.19-2.51-4.39-5-6.64-7.47a48.74,48.74,0,0,0-6.8-6.75c-.16-.11-.34.1-.26.25a47.16,47.16,0,0,0,5.21,6.74q2.79,3.3,5.6,6.59Q33,22.6,38.52,29.35c7.36,9,14.66,18,21.75,27.15q3.06,3.95,6,7.93l3,4a11.85,11.85,0,0,0,3,3.38A.74.74,0,0,0,73.39,71Z"/><path class="cls-1" d="M69.46,78.21Q47.28,50.09,23.67,23.15,20.34,19.34,17,15.57c-1.07-1.2-2.16-2.38-3.25-3.57-.57-.62-1.14-1.23-1.73-1.83a2.45,2.45,0,0,0-1.74-.95.14.14,0,0,0-.17.13c0,1.31.85,2,1.68,3,1,1.17,2,2.33,3,3.5,1.89,2.2,3.82,4.38,5.72,6.58q5.94,6.87,11.79,13.8Q43.89,50,55.22,64.05q6.35,7.86,12.59,15.81C68.74,81,70.38,79.38,69.46,78.21Z"/><path class="cls-1" d="M61.1,84.19a53.41,53.41,0,0,0-5.45-7l-5.6-6.78c-3.73-4.51-7.5-9-11.26-13.48-7.57-9-15-18.16-22.79-27C11.65,24.87,7.43,19.71,2.77,15c-.42-.43-1.21.14-.85.65C5.26,20.46,9,25,12.65,29.54S20,38.68,23.73,43.21c7.5,9.11,15,18.26,22.51,27.32l6.39,7.66c2.09,2.51,4.09,5.32,6.57,7.47C60.21,86.52,61.83,85.43,61.1,84.19Z"/></g></g></svg>