<svg xmlns="http://www.w3.org/2000/svg" viewBox="0 0 14.45 16.08"><defs><style>.cls-1{fill:#3f3f3f;}</style></defs><g id="Layer_2" data-name="Layer 2"><g id="OBJECTS"><path class="cls-1" d="M4.38,15.56a55.24,55.24,0,0,1,2.07-5.32c.3.42.59.84.87,1.28a29.48,29.48,0,0,0,1.95,3,.64.64,0,0,0,1.09-.57,12.31,12.31,0,0,0-1.8-3.37c-.32-.48-.65-1-1-1.42a38.36,38.36,0,0,0,6.15.6.73.73,0,0,0,.08-1.45c-2.22-.41-4.44-.79-6.65-1.22a1.1,1.1,0,0,0-.25,0l0,0a9.09,9.09,0,0,0,1.59-1.2c.91-.77,1.78-1.6,2.66-2.41.62-.58-.14-1.77-.89-1.26S8.73,3.16,8,3.68A10.12,10.12,0,0,1,6,5q-1-2.31-2-4.64C3.75-.37,2.54.09,2.73.87c.29,1.22.58,2.44.88,3.66.21.88.49,1.81,1.49,2h.05A19.72,19.72,0,0,1,.74,6.49C0,6.38-.31,7.7.48,7.87A36.24,36.24,0,0,0,5,8.55c-.36,1.19-.74,2.37-1.11,3.55a20,20,0,0,0-1,3C2.69,16,4.1,16.52,4.38,15.56Z"/></g></g></svg>