<svg xmlns="http://www.w3.org/2000/svg" viewBox="0 0 13.94 16.47"><defs><style>.cls-1{fill:#3f3f3f;}</style></defs><g id="Layer_2" data-name="Layer 2"><g id="OBJECTS"><path class="cls-1" d="M10.42.38c-.54,1.27-1,2.55-1.64,3.76A31.14,31.14,0,0,1,7.14,6.86C6.32,5.8,5.47,4.76,4.55,3.78,4,3.18,3.42,2.59,2.81,2c-.32-.28-.64-.56-1-.83A1,1,0,0,0,1.5,1C1.28.92,1.11,1,.89.84A.08.08,0,0,0,.79,1c.16.19.1.29.17.49a.77.77,0,0,0,.25.38c.24.27.5.52.75.79.56.6,1.13,1.19,1.67,1.81a38.15,38.15,0,0,1,3,3.84.67.67,0,0,0,1,.13A21.19,21.19,0,0,0,10.1,4.92a17.06,17.06,0,0,0,1.69-4C12,.18,10.77-.42,10.42.38Z"/><path class="cls-1" d="M12.74,8A7.16,7.16,0,0,0,11,9.78c-.55.62-1.12,1.24-1.7,1.84-1,1-2,1.93-3,2.85C4.5,12.35,2.72,10.14.7,8.18c-.32-.31-.89.1-.64.5,1.65,2.58,3.67,4.94,5.5,7.39a.84.84,0,0,0,1.3.17,42.85,42.85,0,0,0,3.81-3.44c.58-.6,1.15-1.21,1.71-1.84a6.16,6.16,0,0,0,1.53-2.07A.81.81,0,0,0,12.74,8Z"/></g></g></svg>