<svg xmlns="http://www.w3.org/2000/svg" viewBox="0 0 10.57 17.82"><defs><style>.cls-1{fill:#3f3f3f;}</style></defs><g id="Layer_2" data-name="Layer 2"><g id="OBJECTS"><path class="cls-1" d="M10.15.53A.75.75,0,0,0,8.83.3,9.19,9.19,0,0,0,5.7,1.9,14.82,14.82,0,0,0,2.49,4.81,10.63,10.63,0,0,0,.08,12.74c.31,2.4,1.91,5.52,4.8,5,2.68-.46,4-3.53,4.65-5.84a28,28,0,0,0,.93-5.6A16.36,16.36,0,0,0,10.15.53ZM8.46,9.11c-.4,2.22-.94,5.07-2.86,6.52C3.42,17.29,2,14.32,1.72,12.49a9.06,9.06,0,0,1,2-6.61,14.41,14.41,0,0,1,3-2.79c.6-.43,1.33-.78,2-1.21.05,1,.19,2.06.17,3.08A27.51,27.51,0,0,1,8.46,9.11Z"/></g></g></svg>