<svg xmlns="http://www.w3.org/2000/svg" viewBox="0 0 33.54 23.21"><defs><style>.cls-1{fill:#3f3f3f;}</style></defs><g id="Layer_2" data-name="Layer 2"><g id="OBJECTS"><path class="cls-1" d="M32.32,0c-.66.12-1,.77-1.2,1.31a16.78,16.78,0,0,1-1,1.94c-1.42,2.35-4.83,4.44-7.21,2a.85.85,0,0,0-1.41.82,6.14,6.14,0,0,1-2.69,6.08A6,6,0,0,1,12,11.74a.79.79,0,0,0-1.18.67c0,3.16,0,7.92-3.64,9.21a4.43,4.43,0,0,1-4.29-1,8.54,8.54,0,0,1-1.54-1.8A10.88,10.88,0,0,0,.19,17.08a.07.07,0,0,0-.11,0c-.44,1.66,1.1,3.6,2.28,4.61A5.54,5.54,0,0,0,7.3,23.07c4.13-1.05,5-5.53,5.07-9.27a7.72,7.72,0,0,0,7.52-.33,7.56,7.56,0,0,0,3.35-6,6.12,6.12,0,0,0,5.12-.22,8,8,0,0,0,2.82-2.55,9.63,9.63,0,0,0,1-1.77c.11-.24.21-.49.3-.73s.13-.36.19-.55h0a.49.49,0,0,0,.58-.07C34,1,33.18-.15,32.32,0Z"/></g></g></svg>