<svg xmlns="http://www.w3.org/2000/svg" viewBox="0 0 78.95 79.43"><defs><style>.cls-1{fill:#3f3f3f;}</style></defs><g id="Layer_2" data-name="Layer 2"><g id="OBJECTS"><path class="cls-1" d="M72.33,2.65C68.59.77,64.19.86,60.18,1.66a28.71,28.71,0,0,0-5.4,1.64,19.25,19.25,0,0,0-7.4-1.93,18.32,18.32,0,0,0-4.18.25A12,12,0,0,0,38.34.11,27,27,0,0,0,26,1.92c-.31.13-.6.28-.89.43a13.54,13.54,0,0,0-10-1.61,11,11,0,0,0-7.74,6.6,5.93,5.93,0,0,0,.54,5.6A4.08,4.08,0,0,0,12,14.5c.74-.15.42-1.27-.31-1.13-2.3.45-3.66-1.9-3.53-3.89a7.89,7.89,0,0,1,2.65-5.06A10.91,10.91,0,0,1,20.79,2a14,14,0,0,1,2.94,1.11,10.94,10.94,0,0,0-5,7.29,15,15,0,0,0,.37,6.63,10.39,10.39,0,0,0-4.5,5.22,9.09,9.09,0,0,0-5.54,4.28,13,13,0,0,0-7.52,6.25A14,14,0,0,0,2.85,47.59a24.19,24.19,0,0,0,3,5,25.07,25.07,0,0,0,2.71,3c-1.6,3.58-.38,7.78,1.56,11a20.43,20.43,0,0,0,19.44,9.66,25.13,25.13,0,0,0,3.74.53,26.31,26.31,0,0,0,5,.93A21,21,0,0,0,51,78.94,23.12,23.12,0,0,0,54,78a27,27,0,0,0,6.72-2.45c3.59-1.88,7.46-4.8,9.24-8.53a8.24,8.24,0,0,0,.44-1.13A3.25,3.25,0,0,1,70.29,67,13.18,13.18,0,0,1,68,71.45a15,15,0,0,1-8.21,5.39.74.74,0,0,0,.39,1.42,16.34,16.34,0,0,0,9.34-6.63c1.46-2.13,3.39-6.11,1.21-8a4.79,4.79,0,0,0-.48-1.87,5,5,0,0,0-1-1.4,14.36,14.36,0,0,0-.5-7,9.75,9.75,0,0,0-2.3-3.68c0-.16,0-.33-.06-.49a13.3,13.3,0,0,0-1.71-4.71,9.49,9.49,0,0,0-.77-5.32A18,18,0,0,0,66,37.83a16.59,16.59,0,0,0,6.14-8.42,20.75,20.75,0,0,0,5.5-7.8C80.23,15,79.24,6.13,72.33,2.65ZM52.81,4.22A19.41,19.41,0,0,0,49.2,6.63c-.41.36-.8.74-1.18,1.13a15.86,15.86,0,0,0-.61-1.59,10.3,10.3,0,0,0-2.26-3.11A17.9,17.9,0,0,1,52.81,4.22ZM55.76,5.7A12.83,12.83,0,0,1,61,12h-.07a11.24,11.24,0,0,0-8.82,4.3,12.86,12.86,0,0,0-3.38-.51,18.7,18.7,0,0,0-.21-6.3A17.49,17.49,0,0,1,54.56,5Q55.18,5.32,55.76,5.7ZM71.59,26.15a12.79,12.79,0,0,1-.34,2,14.66,14.66,0,0,1-9.5,3.63,14.1,14.1,0,0,0,0-5.14,12.33,12.33,0,0,0-1.19-3.41,10.84,10.84,0,0,0,2.76-6.92,13.32,13.32,0,0,0-.18-2.55,11.41,11.41,0,0,1,5.15,3A11.9,11.9,0,0,1,71.59,26.15ZM62.3,47.05a11.66,11.66,0,0,0-1.86-.53,19.36,19.36,0,0,0-9.38.63A14.17,14.17,0,0,0,50,43.36a20,20,0,0,0,5-2.11A19.71,19.71,0,0,0,57.85,41a9.9,9.9,0,0,1,3.52,1.73,8.47,8.47,0,0,1,1.68,1.81A11.24,11.24,0,0,1,62.69,46,8.94,8.94,0,0,1,62.3,47.05Zm1,1.79A8.58,8.58,0,0,1,65,50a16.47,16.47,0,0,1,.15,2.42,17.15,17.15,0,0,1-1,5.61,24.93,24.93,0,0,0-5.2-.52,22.23,22.23,0,0,0-4-1.34,16.31,16.31,0,0,0,8.22-7.4A.75.75,0,0,1,63.31,48.84ZM4.2,47c-.15-.2-.29-.42-.43-.63-1-2.75-1.44-5.92.13-8.48a8.33,8.33,0,0,1,5.42-3.49,16.53,16.53,0,0,0,2.85,3.89A26.32,26.32,0,0,0,18.39,43a17.56,17.56,0,0,0-1.28,1.67,10.69,10.69,0,0,0-1.73,4.91,18,18,0,0,0-4,2.53A14.66,14.66,0,0,1,4.2,47ZM9.66,31.75a6.46,6.46,0,0,1,.27-4.05A17.88,17.88,0,0,1,14,26.92h0A14.8,14.8,0,0,0,16,32.6a25,25,0,0,0-5.92.33A10.18,10.18,0,0,1,9.66,31.75Zm6.17-8.58a11.06,11.06,0,0,1,7.85,1.63h0a11.21,11.21,0,0,0-.23,2.07c-.13-.05-.24-.11-.37-.15a23.09,23.09,0,0,0-7.59-1.22A8.06,8.06,0,0,1,15.83,23.17Zm15.88-9.65a11.12,11.12,0,0,1,0,3.31l-.28,0A12.17,12.17,0,0,1,31.71,13.52ZM45.14,5.41A11.47,11.47,0,0,1,46.8,9.24a12.27,12.27,0,0,0-2.4,6.82c0,.15,0,.3,0,.45l-.15,0a11.54,11.54,0,0,0-4.09,2.68,12.41,12.41,0,0,0-7-2.49,12.86,12.86,0,0,0-.38-4.7c-.08-.3-.19-.59-.28-.88A12.42,12.42,0,0,1,36.63,6,16.14,16.14,0,0,1,43,3.33,8,8,0,0,1,45.14,5.41Zm2,9.4q-.06.53-.15,1c-.37.05-.74.13-1.1.21a10.32,10.32,0,0,1,1.27-4.71A17.28,17.28,0,0,1,47.15,14.81Zm5.68,3.3a12,12,0,0,1,5.76,4.66,6.16,6.16,0,0,1-.69.55,8.37,8.37,0,0,1-6.12,1.37,7.82,7.82,0,0,1,0-5,9.21,9.21,0,0,1,.82-1.63A1.27,1.27,0,0,1,52.83,18.11Zm-2.77,6a5.28,5.28,0,0,1-.86-.49A7.24,7.24,0,0,1,47,21.15a16.08,16.08,0,0,0,1.36-3.8,11,11,0,0,1,2.73.26A9.06,9.06,0,0,0,50.06,24.12ZM43.84,23a20.91,20.91,0,0,0-1.9-2.21l-.51-.47a9,9,0,0,1,2-1.52,8.66,8.66,0,0,1,1.14-.57A11.63,11.63,0,0,0,45.26,21,11.09,11.09,0,0,1,43.84,23Zm3.45,11a38.1,38.1,0,0,0-3.81.85,18.07,18.07,0,0,1-2.07-2.62,17.74,17.74,0,0,0-1.19-5.11,7.73,7.73,0,0,0,1.53-.53A10.24,10.24,0,0,0,44,25.06a29.53,29.53,0,0,1,2.11,3.79A10.38,10.38,0,0,1,47.29,34ZM50.85,35a16.4,16.4,0,0,1,7.75,1.12,12,12,0,0,1-2.82,3,18,18,0,0,0-4.75.09,14.72,14.72,0,0,1-3.79-1.43,8.42,8.42,0,0,0,1.08-2.5C49.17,35.17,50,35.07,50.85,35ZM63.49,66A5.78,5.78,0,0,1,60.14,70a16.45,16.45,0,0,1-5.25,1.72A9.8,9.8,0,0,0,56.68,68a13.59,13.59,0,0,0,4.45-2.73c.53-.18,1.07-.37,1.61-.53l.73-.21A5.57,5.57,0,0,1,63.49,66ZM45.85,76.06c-.29-.68.32-1.56,1.07-2.32.47-.22.95-.46,1.41-.72a19.31,19.31,0,0,0,3.47.32,15.79,15.79,0,0,1-2.1,1.29A18.19,18.19,0,0,1,45.85,76.06ZM20.54,66.44c.1.32.2.63.33.94a14.67,14.67,0,0,0,5.61,6.34c-2.7-1.21-5.28-3.26-5.87-6.23A4.75,4.75,0,0,1,20.54,66.44Zm-2.7-11.75a8.08,8.08,0,0,1,.57-.6,20.41,20.41,0,0,0,6-1.52A9.19,9.19,0,0,0,25,54.64a12,12,0,0,0-2.29,2.22,12.62,12.62,0,0,0-1.11,1.69l-.11,0c-.29.08-.57.12-.85.17A13.18,13.18,0,0,1,17.84,54.69Zm-2.5-3.62a12.26,12.26,0,0,0,.22,1.81A18.62,18.62,0,0,1,13,52.52,16.78,16.78,0,0,1,15.34,51.07Zm7.92-13.31a19.78,19.78,0,0,1-3.87-3.43,27.33,27.33,0,0,1,5.23,1.48A25.72,25.72,0,0,1,27.15,37a23.15,23.15,0,0,0-3,1.36C23.85,38.14,23.54,38,23.26,37.76Zm2-13.3a5.21,5.21,0,0,0,.79.13,6,6,0,0,0,5-2.56l.08-.12A11.43,11.43,0,0,0,31.78,23a9,9,0,0,0,5.79,4.16,15,15,0,0,0,2.55,6.27,11.58,11.58,0,0,1-.21,2.36l-.23-.05a23.67,23.67,0,0,0-6.25-.22,22.4,22.4,0,0,0-6.25-9.4,21,21,0,0,0-1.95-1.55A.29.29,0,0,0,25.25,24.46Zm22.8,30.83-1,0-.53-.15a6.8,6.8,0,0,1-2.35-1.35,11,11,0,0,1,.79-1,12,12,0,0,1,1.45-1.4A30.86,30.86,0,0,1,49.21,53c-.11.3-.22.61-.36.91A12.33,12.33,0,0,1,48.05,55.29Zm5.86,2c.11.17.22.34.32.51l-.92.13-1.05.19a11.78,11.78,0,0,0-1.86-1A11.78,11.78,0,0,0,52,57C52.6,57.11,53.25,57.21,53.91,57.33Zm-26.27-.9A16,16,0,0,0,30,53.57,15.93,15.93,0,0,1,33.72,53c.32.19.64.38,1,.59a15.09,15.09,0,0,1,2.69,2.3A46.83,46.83,0,0,0,32.53,57q-1.7.49-3.36,1.11A11.53,11.53,0,0,1,27.64,56.43ZM26,53a7.24,7.24,0,0,1-.17-1c.54-.28,1.06-.58,1.57-.9a14.44,14.44,0,0,1,2.51.41v0c-.19.35-.39.69-.6,1a14.24,14.24,0,0,0-3,1.29A8.21,8.21,0,0,1,26,53Zm-1.62-1.64-.53.23a18.38,18.38,0,0,1-3.42,1,11.15,11.15,0,0,1,3.94-1.41C24.33,51.21,24.34,51.27,24.34,51.33Zm5.34-7.77c.29-.27.6-.53.91-.78l.56.13c.29.06.59.1.89.15,0,.26,0,.52-.05.78a13,13,0,0,1-3,.43C29.19,44,29.43,43.79,29.68,43.56ZM49.63,66a9.1,9.1,0,0,1-.27.93,9.61,9.61,0,0,1-5.51-4.43l.57-.31a29.87,29.87,0,0,1,4.33-1.92A8.23,8.23,0,0,1,49.63,66Zm-6.31-4.6-.12-.27a14.61,14.61,0,0,0,4.15-2.83,8.85,8.85,0,0,1,.77,1A24.09,24.09,0,0,0,43.32,61.35Zm-3.68-4.42c.56-.07,1.11-.12,1.67-.17,0,.11,0,.21-.05.32-.41.13-.83.28-1.23.44Zm1.54,1.4a9.19,9.19,0,0,0,.21,2,13.58,13.58,0,0,0-.78-1.74Zm1.58-.48a13.17,13.17,0,0,1,3.47-.4,13.31,13.31,0,0,1-3.39,2.29A8.55,8.55,0,0,1,42.76,57.85Zm-1-2.6,0,.11c-.74.06-1.47.12-2.2.22a13.65,13.65,0,0,0,.35-1.78,20.88,20.88,0,0,1,2.17.8A6.4,6.4,0,0,0,41.71,55.25Zm-3.5-.1a17.34,17.34,0,0,0-2.29-2.08,19.22,19.22,0,0,1,2.6.4A11.84,11.84,0,0,1,38.21,55.15Zm-3.89,5.59a9.94,9.94,0,0,1-1.92-.6,11.44,11.44,0,0,1-1.91-1,45,45,0,0,1,6.93-1.81A8.92,8.92,0,0,1,34.32,60.74ZM39,59.31l.61-.32a17.08,17.08,0,0,1,.75,1.63,13.4,13.4,0,0,1-3.83.41A15.2,15.2,0,0,1,39,59.31Zm9.27-1.65a10.84,10.84,0,0,1,2.14.67l.32.16c-.51.12-1,.25-1.53.4A11,11,0,0,0,48.28,57.66Zm-8.38-5a14.42,14.42,0,0,0-.27-3.15c-.05-.25-.13-.49-.2-.74l1.08.29a7.08,7.08,0,0,0,1.13,4.19C41.07,53,40.49,52.82,39.9,52.65ZM38.58,52c0,.11,0,.22,0,.33a20.16,20.16,0,0,0-4.51-.48,15.33,15.33,0,0,0-2.54-1.17,20.64,20.64,0,0,0,1-2.94,37.68,37.68,0,0,1,5.48.7A13.15,13.15,0,0,1,38.58,52ZM31.3,47.68h0a20.55,20.55,0,0,1-.92,2.64c-.5-.14-1-.26-1.52-.36A16.26,16.26,0,0,0,31.3,47.68Zm1.48-1.24q.11-.57.18-1.14c.1-.19.2-.39.28-.58a14.59,14.59,0,0,0,2.24-1,16,16,0,0,1,2,3.33A36.59,36.59,0,0,0,32.78,46.44Zm4.11-5.3-.15.12a22,22,0,0,1-2.46-1,40.17,40.17,0,0,1,5-2.42A9.64,9.64,0,0,1,36.89,41.14Zm1.33.52a11,11,0,0,0,2.61-4.24c.41.11.81.22,1.21.36A11.08,11.08,0,0,1,44.46,39c-.12.11-.25.21-.38.31A13,13,0,0,1,38.22,41.66Zm-1.14-4.5c-1,.46-2,1-3,1.49a13.49,13.49,0,0,0-.3-1.76,20.54,20.54,0,0,1,3.92,0Zm-3.83,2-.17.1-.1-.08a21.28,21.28,0,0,0-.42-2.11l.33-.05A14.27,14.27,0,0,1,33.25,39.15Zm-1.6-1c-.33-.24-.67-.47-1-.69.26-.07.53-.12.79-.18C31.51,37.56,31.58,37.84,31.65,38.14Zm.2,7-.06.35a9.08,9.08,0,0,1-.64.89,37.23,37.23,0,0,0-3.95.12c.19-.3.39-.59.6-.88A16.62,16.62,0,0,0,31.85,45.13Zm-3,2.57c.38,0,.77,0,1.16,0a17.2,17.2,0,0,1-2.69,2.1,11.42,11.42,0,0,0-1.43,0,8.64,8.64,0,0,1,.58-1.85C27.25,47.8,28,47.74,28.84,47.7Zm-3.27,8.13c.09.18.18.36.28.52a12.93,12.93,0,0,1-2.1,1.35,12.52,12.52,0,0,1,1.33-1.48C25.24,56.08,25.41,56,25.57,55.83ZM26.74,55a11.47,11.47,0,0,1,1.19-.65c-.31.36-.64.71-1,1ZM28,60.08c.31-.13.63-.24.94-.36a13.16,13.16,0,0,0,3.58,2,10.63,10.63,0,0,1-7.73-.15C25.85,61,27,60.48,28,60.08Zm12.84,1.85c.05.21.12.42.16.63s0,.28.07.41c-1.23,1.08-2.37,2.66-2,4.38a3.57,3.57,0,0,0,.91,1.74,10.63,10.63,0,0,1-2.74,3A13.24,13.24,0,0,1,35,73.45a8.31,8.31,0,0,1-2.06-5.72,8.94,8.94,0,0,1,2.33-5.39A14.65,14.65,0,0,0,40.79,61.93Zm-.52,4.16a4,4,0,0,1,.88-1.59,8.84,8.84,0,0,1-.63,3.29A2.1,2.1,0,0,1,40.27,66.09Zm1.87-2.52c.13-.1.26-.21.4-.3a11.2,11.2,0,0,0,1.74,2.28,10.72,10.72,0,0,0,4.52,2.69,11.36,11.36,0,0,1-2.19,3,16.64,16.64,0,0,1-2.73-1,11.46,11.46,0,0,1-2.65-1.57A10.54,10.54,0,0,0,42.14,63.57Zm6.59,6.76A12.87,12.87,0,0,0,49.8,68.5c.4.09.8.15,1.2.2C50.22,69.21,49.47,69.76,48.73,70.33Zm5-3.29-.36.2A9.8,9.8,0,0,1,52,67.3a9.92,9.92,0,0,1-1.64-.18,9.68,9.68,0,0,0,.49-3.3,9.18,9.18,0,0,0-1.05-4l.06,0c.73-.22,1.46-.41,2.21-.58a9.61,9.61,0,0,1,3.27,4A9.06,9.06,0,0,1,53.7,67Zm-.32-8,1.35-.22a7.89,7.89,0,0,1,.68,2.55A10.5,10.5,0,0,0,53.38,59ZM43.12,52.6a6.05,6.05,0,0,1-1-3.05c.94.31,1.86.67,2.76,1.06A12.73,12.73,0,0,0,43.12,52.6ZM39,47.38a17,17,0,0,0-2.18-4.12c.16,0,.33,0,.49,0a23.41,23.41,0,0,0,4.91.87,9.24,9.24,0,0,0-1.58,3.71C40.1,47.65,39.56,47.51,39,47.38Zm4.64-4.88a23.54,23.54,0,0,1-2.41-.18,14.68,14.68,0,0,0,2-.88,11.72,11.72,0,0,0,2.33-1.66,9.59,9.59,0,0,1,.88.81A11.7,11.7,0,0,0,43.65,42.5Zm3.83-.69.33.45c-.5.07-1,.12-1.51.16C46.68,42.2,47.07,42,47.48,41.81ZM37.3,25.5a7.91,7.91,0,0,1-3.94-3.09,10.6,10.6,0,0,1-1.17-2.2c.14-.3.27-.61.38-.92a16.27,16.27,0,0,1,2.14,1.83,20,20,0,0,1,2.81,3.7c0,.24,0,.48,0,.72Zm-4-7.46A11,11,0,0,1,39.14,20l.24.18A9.11,9.11,0,0,0,38,22.8,19.39,19.39,0,0,0,33.28,18ZM30.5,20.29c-1.1,1.77-2.82,3.1-4.75,2.74a8.6,8.6,0,0,1,2.84-3.6,7.57,7.57,0,0,1,1.47-.81A13.21,13.21,0,0,0,30.5,20.29Zm1,13.05a19.47,19.47,0,0,1,1,2.29l-.34,0c-.13-.36-.25-.73-.41-1.08a13.78,13.78,0,0,0-6.84-7.1A11.06,11.06,0,0,1,25,25.67,22.32,22.32,0,0,1,31.5,33.34Zm-3.88-2.59A13.09,13.09,0,0,1,31,35.88c-.69.14-1.37.3-2.05.49A14.13,14.13,0,0,1,25.05,29,12,12,0,0,1,27.62,30.75Zm.84,7.36a19.31,19.31,0,0,0,2.8,2.31c-.3.2-.59.42-.87.63a24.92,24.92,0,0,1-4.58-1.8A22.26,22.26,0,0,1,28.46,38.11Zm.4,4.2a19.1,19.1,0,0,0-1.81,1.9A20.21,20.21,0,0,1,21,42.59,20.81,20.81,0,0,1,24,40.25,25.7,25.7,0,0,0,28.86,42.31ZM23.55,45a16.36,16.36,0,0,0,2.53.47,11.37,11.37,0,0,0-.67,1.17,35.62,35.62,0,0,0-6.9,1.6q-.71.24-1.41.51a11.46,11.46,0,0,1,2.77-5.11A23,23,0,0,0,23.55,45Zm-5.78,5a35.19,35.19,0,0,1,7.06-1.88,10.47,10.47,0,0,0-.41,1.74,12.42,12.42,0,0,0-6.75,3l-.46,0c0-.07-.05-.14-.07-.21a8.42,8.42,0,0,1-.24-2.36Zm4.84,9.5a13.46,13.46,0,0,0,3.71-2,1.92,1.92,0,0,0,.22-.18,13.1,13.1,0,0,0,1.15,1.32c-.5.2-1,.42-1.5.64-1,.44-2,.9-3,1.45-.32-.19-.64-.39-.94-.61C22.39,59.93,22.5,59.71,22.61,59.49ZM23,62.58A12.2,12.2,0,0,0,33,63a9.35,9.35,0,0,0-1.43,6.25,10.05,10.05,0,0,0,1.89,4.83,15.65,15.65,0,0,1-2.25.64,22.48,22.48,0,0,1-2.5-1.26c-3.06-1.81-6.37-4.53-7.07-8.21a7.18,7.18,0,0,1-.14-1.3A7.54,7.54,0,0,1,23,62.58ZM36.94,75.29a10.35,10.35,0,0,1-1.14-1,15.21,15.21,0,0,0,2.59-1.83,11.72,11.72,0,0,0,2.23-2.72,13.75,13.75,0,0,0,2.24,1.39,18.69,18.69,0,0,0,2.57,1.09A14.87,14.87,0,0,1,42.7,74c-.38.19-.76.35-1.14.5A26.76,26.76,0,0,1,36.94,75.29Zm13.3-3.4a17.89,17.89,0,0,0,3.69-3.25A10.73,10.73,0,0,0,55,68.45c.22,0,.42-.12.62-.18a8.89,8.89,0,0,1-2.22,3.65A18,18,0,0,1,50.24,71.89Zm9.9-7.74c-.74.26-1.48.53-2.21.84l-1.08.47a8.34,8.34,0,0,0-.23-1.37c0-.19-.1-.37-.16-.55a9.23,9.23,0,0,0-.52-4.9c.72-.07,1.44-.11,2.16-.13a10.07,10.07,0,0,1,3.62,2.42,7.94,7.94,0,0,1,.58.72A14.38,14.38,0,0,1,60.14,64.15Zm-8.85-8.59c-.58-.07-1.16-.13-1.73-.17a11.92,11.92,0,0,0,.79-1.65,17.62,17.62,0,0,1,1.93,1.64Zm-3.85-5.07a15.88,15.88,0,0,1,2.45-1.4,11.72,11.72,0,0,1-.31,2.62C48.88,51.27,48.17,50.87,47.44,50.49Zm-1.53-.74c-.47-.22-.95-.42-1.42-.62-.76-.31-1.54-.59-2.32-.85a6.44,6.44,0,0,1,.25-1.12,7.67,7.67,0,0,1,1.72-3,24,24,0,0,0,4.48-.48A12.46,12.46,0,0,1,49.8,47.6,16.9,16.9,0,0,0,45.91,49.75ZM49.3,42c-.14-.25-.3-.47-.46-.7a13.65,13.65,0,0,1,1.64-.43l.28,0q.75.16,1.5.27A19.53,19.53,0,0,1,49.3,42Zm-3.14-4.87c-.22-.15-.44-.29-.65-.45s-.52-.43-.77-.66c.74-.19,1.48-.35,2.23-.49A6.88,6.88,0,0,1,46.16,37.12ZM43,23.81a7.61,7.61,0,0,1-3.4,1.79c-.11-.24-.23-.47-.35-.69a7.66,7.66,0,0,1,1.45-3.74,18.65,18.65,0,0,1,2.38,2.56Zm3-6.12c.22-.06.44-.11.67-.15-.13.46-.28.92-.44,1.38A10.63,10.63,0,0,1,46,17.69ZM24.44,22.52l-.33-.19a9.24,9.24,0,0,1-3.23-4.57,11.43,11.43,0,0,1,4.88-1,10.82,10.82,0,0,1,3.53.71A10,10,0,0,0,24.44,22.52Zm-7.35,4.37a21.2,21.2,0,0,1,6.4,1.34,15.1,15.1,0,0,0,2.34,6.65A30.19,30.19,0,0,0,21,33.31c-.88-.2-1.84-.38-2.86-.51a14,14,0,0,1-2.58-5.95C16.09,26.85,16.59,26.86,17.09,26.89Zm-3.65,7a28.07,28.07,0,0,1,3.43.1,21.56,21.56,0,0,0,5.64,5.33,20,20,0,0,0-3.11,2.53,25.23,25.23,0,0,1-2.63-1.55,19.09,19.09,0,0,1-6.14-6.15A25.53,25.53,0,0,1,13.44,33.89Zm-1.7,19.7a18.64,18.64,0,0,0,4.15.6c0,.17.11.33.17.49-.12.16-.24.29-.35.45A13.69,13.69,0,0,0,14.25,58a14.66,14.66,0,0,1-2.89-1.61c-.38-.28-.76-.57-1.13-.89A8.6,8.6,0,0,1,11.74,53.59Zm5,2.62a14.1,14.1,0,0,0,1.77,2.72,11.11,11.11,0,0,1-2.87-.47A11.72,11.72,0,0,1,16.71,56.21Zm-1.47,3.48a11.91,11.91,0,0,0,4.34.44c.32.31.66.6,1,.87a10.23,10.23,0,0,0-.39,2.33c-1.73,2.4-1.15,5.32.49,7.63-2.52-1.72-4.87-4-5.54-7A9.72,9.72,0,0,1,15.24,59.69ZM39,76.48a17.17,17.17,0,0,0,2.81-.85c.88-.24,1.74-.52,2.59-.84a2.37,2.37,0,0,0,0,1.58,21.71,21.71,0,0,1-5,.27Zm6,1a2.76,2.76,0,0,0,.57.45,20.2,20.2,0,0,1-2.19-.18Q44.23,77.61,45,77.44Zm7.14-.58a12.93,12.93,0,0,1-5.11,0,17.22,17.22,0,0,0,6-3.26l.43-.37c.55,0,1.1-.12,1.64-.21,3.5-.58,8.23-2.27,9.37-6a6.14,6.14,0,0,0,.18-2.87,12.12,12.12,0,0,1,2.16-.33,20,20,0,0,1-1.64,3.31A23.21,23.21,0,0,1,53.16,76.7ZM67.33,62.52a12.86,12.86,0,0,0-2.84.38l-.11,0a10,10,0,0,0-.49-1.05,18.15,18.15,0,0,0,1.29-2.57,8.91,8.91,0,0,1,2.65,1.21C67.69,61.18,67.53,61.86,67.33,62.52Zm-4.34-2a10.49,10.49,0,0,0-2.11-1.94l.61,0c.68.07,1.47.17,2.27.33C63.53,59.5,63.27,60,63,60.53ZM53.62,55a18.64,18.64,0,0,0-2.87-2.52l.06-.2a13.43,13.43,0,0,0,.37-3.74,16.12,16.12,0,0,1,10.58-.37A14.79,14.79,0,0,1,53.62,55Zm4.07-15.55-.23,0a14.78,14.78,0,0,0,1.71-1.82c.21-.27.4-.57.59-.86a7.26,7.26,0,0,1,1.91,1.68A18.4,18.4,0,0,1,57.69,39.47Zm-7.31-5.92q-.91.08-1.83.21a7.94,7.94,0,0,0-.08-1.45A17.41,17.41,0,0,0,45.86,26c-.34-.55-.69-1.1-1-1.64a12.08,12.08,0,0,0,1.35-1.66A8.58,8.58,0,0,0,48,24.71a7.75,7.75,0,0,0,2.66,1.37,12.64,12.64,0,0,0,9.21,7.27H60a13,13,0,0,1-.6,1.45A18.07,18.07,0,0,0,50.38,33.55Zm3.67-5.1a9.71,9.71,0,0,1-1.51-2,10,10,0,0,0,5.11-1,9.44,9.44,0,0,0,1.79-1.15,12.27,12.27,0,0,1,1,7.38A10.72,10.72,0,0,1,54.05,28.45Zm7.52-14a9.56,9.56,0,0,1-1.91,7.2,14.15,14.15,0,0,0-6.1-4.88,10,10,0,0,1,5.54-3.25,9.14,9.14,0,0,1,2.27-.12A9.26,9.26,0,0,1,61.57,14.49ZM35.64,1.63a14.83,14.83,0,0,1,5.08.59A15.83,15.83,0,0,0,31.6,9.1a16.8,16.8,0,0,0-5-5.75A26.46,26.46,0,0,1,35.64,1.63ZM20.05,12.45A9.75,9.75,0,0,1,25.26,4a15.17,15.17,0,0,1,5.59,6.6A12.67,12.67,0,0,0,30.11,13a14.38,14.38,0,0,0-.3,3.21,12,12,0,0,0-1.32-.43,12.39,12.39,0,0,0-8,.62A15.15,15.15,0,0,1,20.05,12.45Zm-2.69,7.91a9.27,9.27,0,0,1,2.2-1.9,13.19,13.19,0,0,0,2,3.47,9.68,9.68,0,0,0,1.1,1.12,11.65,11.65,0,0,0-6.29-1.15A8.85,8.85,0,0,1,17.36,20.36Zm-3.17,3.29A9.79,9.79,0,0,0,14,25.56a19.21,19.21,0,0,0-3,.45A7.81,7.81,0,0,1,14.19,23.65ZM7,29a12.4,12.4,0,0,1,1.4-.73,8.24,8.24,0,0,0,.42,4.91c-3.68,1-6.65,3.18-7.15,7.36A11.63,11.63,0,0,1,7,29Zm-.79,21.9A15.48,15.48,0,0,0,8.34,52.3a16.29,16.29,0,0,0,1.92.82,10.53,10.53,0,0,0-1.08,1.41A22.05,22.05,0,0,1,6.18,50.93ZM19,72.93a19,19,0,0,1-7.06-6c-2-2.83-3.6-6.85-2.3-10.26a16.13,16.13,0,0,0,4.21,2.57,11.14,11.14,0,0,0-.09,5.59c1,4,4.53,6.7,8,8.61a28.31,28.31,0,0,0,2.88,1.39A19.49,19.49,0,0,1,19,72.93Zm43.35.17q-.52.33-1,.63A23.59,23.59,0,0,0,67.85,65c.15-.36.28-.72.41-1.09a3.18,3.18,0,0,1,1.37.54C69.21,68.14,65.27,71.24,62.37,73.1Zm7.18-10.21-.08,0a4.88,4.88,0,0,0-.81-.22q.15-.54.27-1.08A3.62,3.62,0,0,1,69.55,62.89ZM68,59.42a9.3,9.3,0,0,0-1.7-.78c-.25-.09-.52-.16-.78-.24a19.52,19.52,0,0,0,1-6.7A11.2,11.2,0,0,1,68,59.42ZM63.7,47.67q.24-.56.42-1.11a11.86,11.86,0,0,1,.57,1.68A9.75,9.75,0,0,0,63.7,47.67Zm-.55-5.19a9.91,9.91,0,0,0-2.74-2,18.65,18.65,0,0,0,2.06-.73A7.52,7.52,0,0,1,63.15,42.48Zm-.06-4.67a8.54,8.54,0,0,0-2.25-2.19c-.1-.07-.22-.12-.32-.18a14.61,14.61,0,0,0,.79-1.92,14.35,14.35,0,0,0,9-2.66A15.6,15.6,0,0,1,63.09,37.81ZM72.75,26.7A12.94,12.94,0,0,0,70.25,17a12.68,12.68,0,0,0-7.44-4.76,14.4,14.4,0,0,0-6.37-8,29.49,29.49,0,0,1,2.87-.89c3.54-.87,7.43-1.22,10.94,0a10.5,10.5,0,0,1,6.62,6.75C78.77,15.87,76.8,22.31,72.75,26.7Z"/></g></g></svg>