<svg xmlns="http://www.w3.org/2000/svg" viewBox="0 0 69.89 74.61"><defs><style>.cls-1{fill:#3f3f3f;}</style></defs><g id="Layer_2" data-name="Layer 2"><g id="OBJECTS"><path class="cls-1" d="M57.24,2.52a9.57,9.57,0,0,0-3,1.69C49.92-.31,42.7-.25,38,3.39A12.53,12.53,0,0,0,34.22,1,13.08,13.08,0,0,0,20,3.71a10.15,10.15,0,0,0-3.42-1.57A12.58,12.58,0,0,0,1.41,12.77a14.18,14.18,0,0,0,.19,5c.23,1.1,1.79.6,1.65-.45C2.51,12,5.32,6,10.7,4.34a9.76,9.76,0,0,1,8,.89A12.65,12.65,0,0,0,17.6,7a13.18,13.18,0,0,0-.94,9.51c.46,1.56,1.37,3.18,3.17,3.29A4.5,4.5,0,0,0,23.7,17.3c2.26-4,1-9-2-12.12A10.15,10.15,0,0,1,28.4,2a11.35,11.35,0,0,1,8.11,2.67l-.11.1c-2.2,2.38-4,5.91-3.76,9.24a3.72,3.72,0,0,0,2.43,3.57,4.65,4.65,0,0,0,4.46-1.46c2.17-2.25,2.34-5.75,1.27-8.56a10.79,10.79,0,0,0-1.36-2.5,10.34,10.34,0,0,1,9.45-1.85,8.75,8.75,0,0,1,3.86,2.45C50,9,48.87,13.93,51,17.75c.91,1.67,2.8,1.6,4.1.44a7.55,7.55,0,0,0,2.09-4.52,11.42,11.42,0,0,0-1.62-7.76,7.49,7.49,0,0,1,1.68-1.1C62,2.56,67.83,6.41,68.53,11.38c.11.79,1.34.57,1.36-.18C70,5,62.92.66,57.24,2.52ZM22.63,10.75c.45,2,.31,5.84-2.05,6.69-2,.73-2-4.84-1.86-6A11.26,11.26,0,0,1,20.5,6.69,8.63,8.63,0,0,1,22.63,10.75Zm14,4.59c-3.07.74-1-5.08-.48-6.25A11.81,11.81,0,0,1,38,6.39,8.13,8.13,0,0,1,39.31,9.6C39.67,11.68,39.08,14.76,36.66,15.34Zm17.59.29c-.33.56-.88,1.46-1.34.6a5.88,5.88,0,0,1-.47-1.76,9.45,9.45,0,0,1,.23-3.89A9.64,9.64,0,0,1,54.11,7.5,8.14,8.14,0,0,1,54.25,15.63Z"/><path class="cls-1" d="M66.63,34.06a6.76,6.76,0,0,0-5.14-4,8.77,8.77,0,0,0-6.32,1.27,11.08,11.08,0,0,0-13.05-1.2,14.83,14.83,0,0,0-3,2.29c-.32-.28-.65-.55-1-.8-4.4-3.09-10.42-2.27-14.57.85a13,13,0,0,0-1.38,1.21c-4.66-3.85-11.78-3.23-16.5.23A13.82,13.82,0,0,0,0,42.42a.57.57,0,0,0,1.1.3c2.54-6.11,8.7-11.12,15.64-9.57a10.32,10.32,0,0,1,4.16,1.94c-2.81,3.57-4.16,8.57-1.46,12.5a1.36,1.36,0,0,0,1.79.47c4.67-2.22,5.33-8.46,2.69-12.46a11.27,11.27,0,0,1,8.39-3.5,8.58,8.58,0,0,1,5.2,2.13,14.39,14.39,0,0,0-3,8c-.08,2.48,1.29,5,3.9,5.45s4.32-2.05,4.78-4.39A11.32,11.32,0,0,0,41,34.44a10.11,10.11,0,0,1,7.79-3.37,8.54,8.54,0,0,1,4.52,1.78A12.83,12.83,0,0,0,50.16,38c-.65,2-.7,4.52.78,6.15a4.16,4.16,0,0,0,6.16-.24c2.9-3.07,2-7.53-.25-10.68a6.28,6.28,0,0,1,1.66-.7,5.48,5.48,0,0,1,5.57,1.45,5.16,5.16,0,0,1,.73,5.42c-.26.58.43,1.23.93.72A5.45,5.45,0,0,0,66.63,34.06ZM21.19,45.15a9.08,9.08,0,0,1,1.47-8,5.92,5.92,0,0,1,.68,1.77A6.28,6.28,0,0,1,21.19,45.15Zm19.53-3.59c-.09,1.07-.66,3.81-2.24,3s-1-3.41-.64-4.77a12.94,12.94,0,0,1,1.56-3.4c.14.23.29.46.41.7A8.08,8.08,0,0,1,40.72,41.56Zm14.68-.1c-.91,1.09-2.3,1.38-2.69-.23a7.18,7.18,0,0,1,1.19-5A8.87,8.87,0,0,1,55,34.67a7,7,0,0,1,1,2.1A5.17,5.17,0,0,1,55.4,41.46Z"/><path class="cls-1" d="M67.69,55.65a22.77,22.77,0,0,0-8.92,4.1c-.41.31-.82.65-1.21,1a10.3,10.3,0,0,0-6.49-3.33,12.05,12.05,0,0,0-9.71,3.88A12,12,0,0,0,39.15,60a11,11,0,0,0-12.26,2.68,12.35,12.35,0,0,0-6-1.76A15.28,15.28,0,0,0,7.64,68.08a10,10,0,0,0-1.39,3.57A.58.58,0,0,0,7.37,72a14.64,14.64,0,0,1,8.1-8.34c3.17-1.25,7.26-1.42,10.27.39-.18.26-.35.51-.52.78-1.25,2-2.21,5-1.13,7.35C25.38,74.9,28.74,74,30,71.66A6.77,6.77,0,0,0,28.51,64l-.17-.15a9.79,9.79,0,0,1,6.53-3,9,9,0,0,1,5.43,1.7A12.74,12.74,0,0,0,38.41,66c-.87,2.47-1,5.86,1.29,7.64,1.64,1.28,4.44,1.41,5.76-.41,1.55-2.15.56-5.73-.56-7.86a12,12,0,0,0-2.26-3,11.53,11.53,0,0,1,4.86-3,8.56,8.56,0,0,1,8.88,2.48,10.3,10.3,0,0,0-2.64,4.85c-.46,2.32.34,5.88,3.19,6.19s3.56-3.43,3.48-5.51A10.27,10.27,0,0,0,58.55,62c2.63-2.44,6.39-4,9.5-5A.68.68,0,0,0,67.69,55.65ZM28,71.26c-.88,1-2,.81-2.3-.45a5.58,5.58,0,0,1,.2-2.89,9.4,9.4,0,0,1,1.31-2.75C28.73,66.72,29.59,69.45,28,71.26Zm16.12-3.6c.52,1.61,1.09,5-1.34,5.21s-3.37-2.26-3.19-4.28a9.76,9.76,0,0,1,2-5A10.05,10.05,0,0,1,44.13,67.66Zm14.3,1.74c-.15.51-.42,1.51-1,1.7s-1.33-.6-1.61-1.09a4.76,4.76,0,0,1-.17-3.63,9.48,9.48,0,0,1,1.74-3.14l.12.19A7.83,7.83,0,0,1,58.43,69.4Z"/></g></g></svg>