<svg xmlns="http://www.w3.org/2000/svg" viewBox="0 0 725.35 642.37"><defs><style>.cls-1,.cls-2{fill:#5eead4;}.cls-2,.cls-3{stroke:#5eead4;stroke-miterlimit:10;stroke-width:2px;}.cls-3{fill:none;}</style></defs><g id="Layer_2" data-name="Layer 2"><g id="Layer_1-2" data-name="Layer 1"><path class="cls-1" d="M151.57,36.15c-.9,1-1.78,2-2.66,3-.65.75-1.3,1.54-1.88,2.34A19.67,19.67,0,0,0,145,45s0,0,0,0a25.3,25.3,0,0,1,2.22-2c3.35-2.35,6.92-4.39,10.33-6.63q4.83-3.16,9.4-6.67l.3.36a48.23,48.23,0,0,0,6,5.76,110.55,110.55,0,0,0,16.6,11.57,81.76,81.76,0,0,0,7.78,3.74,42.43,42.43,0,0,0,10.6,3.22l0,0c-4.44-3.61-8.08-8.31-11.71-12.7l.66.86c-6-7.76-12.37-15.54-19.95-21.8A167.65,167.65,0,0,0,190.27,6.39s0,0,0,0h0a179,179,0,0,0-17.18,10.56q-3.67-3.09-7.54-5.95A190,190,0,0,0,148.82,0h0s0,0,0,0a112.65,112.65,0,0,0,6,12.17c2.06,3.51,4.29,6.93,6.66,10.24.54.75,1.1,1.48,1.65,2.22C160.48,27,158,29.44,155.5,32,154.16,33.32,152.85,34.73,151.57,36.15Z"/><path class="cls-2" d="M660.34,430.43s0,0,0,0a42.43,42.43,0,0,1-10.6-3.22,82.94,82.94,0,0,1-7.78-3.74,110.55,110.55,0,0,1-16.6-11.57,48.19,48.19,0,0,1-6-5.76l-.29-.36-.3.22c-3,2.25-6,4.41-9.1,6.45-3.42,2.24-7,4.29-10.34,6.64a23.74,23.74,0,0,0-2.22,2s0,0,0,0a19.67,19.67,0,0,1,2-3.52c.58-.8,1.23-1.59,1.88-2.34.88-1,1.76-2,2.66-3,1.29-1.42,2.59-2.83,3.93-4.2,2.46-2.51,5-5,7.62-7.3-.55-.74-1.11-1.47-1.64-2.22q-3.57-5-6.67-10.24a114.53,114.53,0,0,1-6-12.17s0,0,0,0h0a187.9,187.9,0,0,1,16.71,11q3.86,2.85,7.54,5.94c.6-.42,1.2-.84,1.81-1.24a179.56,179.56,0,0,1,15.37-9.32h0s0,0,0,0a167.53,167.53,0,0,1-12.93,14.25c7.58,6.27,13.95,14,19.94,21.8l-.66-.86C652.26,422.12,655.9,426.83,660.34,430.43Z"/><path class="cls-3" d="M702.89,311.3c-16.42,25.08-43.66,40.91-63.33,63.53a144.89,144.89,0,0,0-12.67,17c-.61.4-1.21.82-1.81,1.24q-3.68-3.09-7.54-5.94a187.9,187.9,0,0,0-16.71-11h0s0,0,0,0a114.53,114.53,0,0,0,6,12.17q3.09,5.27,6.67,10.24c.53.75,1.09,1.48,1.64,2.22-2.64,2.32-5.16,4.79-7.62,7.3-1.34,1.37-2.64,2.78-3.93,4.2-.9,1-1.78,2-2.66,3-.65.75-1.3,1.54-1.88,2.34a19.67,19.67,0,0,0-2,3.52s0,0,0,0a23.74,23.74,0,0,1,2.22-2c3.35-2.35,6.92-4.4,10.34-6.64,3.11-2,6.14-4.2,9.1-6.45-29.2,56.52-32.22,129.21-76.64,175.62-28.77,30.06-70.56,43.92-111.53,51.16a464.26,464.26,0,0,1-104.23,6.48c-27.55-1.4-58.13-7-74.39-29.33-5.69-7.8-9.07-17-14.09-25.27a117,117,0,0,0-20.5-25s-3.16-2.95-6.71-5.8C176,526,21.3,462.2,4.42,383.42-5.49,337.13,26.86,261,11.59,222.79c-.07-.17-.21-.52-.39-1-9.14-24.24,4.2-50.13,19.64-78,24.67-44.62,37-66.93,42.57-72.6C102.5,41.47,137.52,31,161.89,25.75c4.3-.93,8.26-1.71,11.8-2.4,1.49-.29,3.39-.62,5.67-1,24.41-3.59,91.56-8.2,152.47,20.25,18.23,8.51,35.58,19.22,54.86,25,19.12,5.7,39.34,6.28,59.29,6.82l145.39,3.92c32.41.87,67.35,2.63,92.7,22.84,31.65,25.24,37.73,70.42,38.64,110.89C723.47,246.34,721.65,282.64,702.89,311.3Z"/></g></g></svg>