<svg xmlns="http://www.w3.org/2000/svg" viewBox="0 0 224.26 5.12"><defs><style>.cls-1{fill:#081e22;}</style></defs><g id="Layer_2" data-name="Layer 2"><g id="OBJECTS"><path class="cls-1" d="M173.37,2.1A135.17,135.17,0,0,1,157.78,3a124.31,124.31,0,0,1-15.57-1.3,67.25,67.25,0,0,0-15.45-.54c-5.15.51-10.21,1.69-15.38,2.42s-10.53.94-15.63-.53a54.24,54.24,0,0,0-7.46-2,17.53,17.53,0,0,0-7.51.86c-2.47.72-4.91,1.67-7.49,2.26a30.48,30.48,0,0,1-7.85.62C60.19,4.58,55.09,3.35,50,2.36a80.63,80.63,0,0,0-8.32-1.3,92.18,92.18,0,0,0-17.21,0c-6.19.52-12.3,1.52-16.86,2.3l-5.5,1L.57,4.57A3.23,3.23,0,0,1,0,4.64a2.08,2.08,0,0,1,.53-.15l1.53-.33,5.48-1.1c4.54-.87,10.65-2,16.86-2.55A91.27,91.27,0,0,1,41.75.33c4.81.45,8.07,1.21,8.41,1.24,5.1,1,10.17,2.22,15.31,2.43a29.27,29.27,0,0,0,7.65-.6c2.5-.57,4.92-1.51,7.43-2.25A18.59,18.59,0,0,1,88.4.26a56.11,56.11,0,0,1,7.57,2c5,1.43,10.2,1.24,15.3.51S121.47.89,126.68.37A68.55,68.55,0,0,1,142.3.92a124.13,124.13,0,0,0,15.48,1.29,132,132,0,0,0,15.51-.91c.17,0,1.11-.12,2.64-.19a19.43,19.43,0,0,1,6.16.57c1.22.33,2.47.82,3.79,1.22a8.64,8.64,0,0,0,4.17.41c1.4-.24,2.73-1.3,4.46-1.44a12.3,12.3,0,0,1,4.82.86,35.83,35.83,0,0,0,9.14,1.87,37.2,37.2,0,0,0,8.12-.28,36.73,36.73,0,0,0,5.61-1.27c.66-.19,1.17-.38,1.53-.5a4.21,4.21,0,0,1,.55-.16,2.55,2.55,0,0,1-.52.24c-.35.14-.85.36-1.51.57a32.81,32.81,0,0,1-5.61,1.42,36.1,36.1,0,0,1-8.2.43,36.36,36.36,0,0,1-9.29-1.78,11.74,11.74,0,0,0-4.58-.79c-1.51.11-2.79,1.15-4.39,1.48a9.24,9.24,0,0,1-4.5-.38c-1.37-.4-2.61-.88-3.78-1.19a19,19,0,0,0-5.93-.5C174.47,2,173.54,2.09,173.37,2.1Z" transform="translate(-0.02)"/></g></g></svg>