<svg xmlns="http://www.w3.org/2000/svg" fill="#5eead4" height='6' viewBox="0 0 268.28 23.16"><defs></defs><g id="Layer_2" data-name="Layer 2"><g id="Layer_1-2" data-name="Layer 1"><path class="cls-1" d="M5.82,9.45c2.13,0,4.26-.11,6.38-.17l2.59-.12,11.43-.57Q33,8.24,39.88,7.87L59.4,6.78l4.47-.21L75.24,6,86.61,5.5c1.49-.07,3-.16,4.46-.21l18.14-.57,11.16-.35c1.45,0,2.91-.11,4.37-.13L142.27,4l17.31-.26c1.53,0,3,0,4.57,0l11.3-.05L193,3.58l5.75,0,12,0h1q-13.54.18-27.08.38L173.4,4.2c-1.62,0-3.25,0-4.88.07l-16.36.44-18.91.51c-1.06,0-2.12.09-3.17.14L120,5.83l-20.43.94c-1,0-2,.11-3,.18l-10,.69L68.71,8.88c-1.64.11-3.28.27-4.92.41l-11.44,1L37.8,11.48,17.57,13.25l-4.86.42c-2.9.25-5.79.62-8.68.94a.57.57,0,1,0,0,1.13l3.17.14a2,2,0,0,0-.21.88,2.09,2.09,0,0,0,2.08,2.08c8.27-.52,16.54-1.08,24.82-1.47l21.56-1,23.83-1.13,7.51-.36c.72,0,1.44-.08,2.16-.1l38.4-1,20.52-.54c2.48-.06,4.95-.12,7.42-.16l39.27-.61,16.83-.27c4.79-.08,9.58-.11,14.37-.29l11.87-.45c2-.07,4-.12,5.92-.24L257,10.31h0a1.91,1.91,0,0,0-.19,1.44,1.87,1.87,0,0,0,.86,1.12,1.82,1.82,0,0,0,1.44.19c1-.39,2-.79,2.93-1.2l-.06,0,.21-.09.25-.11-.09,0,1.55-.65,1.63-.69c.58-.26,1.15-.57,1.71-.87a2.08,2.08,0,0,0,1-1.8,2.08,2.08,0,0,0-1.52-2c-.51-.09-1-.16-1.51-.22l-.34,0c-.34,0-.69,0-1,.07-.76,0-1.52.17-2.28.22l-1.87.14-5,.36-1.3.09a1.64,1.64,0,0,0,.34-.62,1.58,1.58,0,0,0,.13-.57l.06-.43a1.56,1.56,0,0,0-.1-.53l.13-.06a2.18,2.18,0,0,0,.76-.75A2.23,2.23,0,0,0,255,2.33a2.19,2.19,0,0,0-.29-1.06l-.33-.42a2.08,2.08,0,0,0-.93-.54,5.49,5.49,0,0,0-2-.31c-.55,0-1.12,0-1.67.05l-2.42,0c-1.14,0-2.27,0-3.41,0l-9,0c-2.83,0-5.66,0-8.49,0h-7.72c-10.26,0-20.51.06-30.77.16L164.89.57c-3.44,0-6.87.08-10.31.16l-23.12.49-6.59.14c-1.28,0-2.55.09-3.83.14l-22.85.86-7,.27c-1.3.05-2.61.13-3.91.2L64.62,4.05c-3.91.21-7.81.45-11.72.69L32.85,6c-5.79.36-11.58.68-17.37,1l-2.75.16L8.28,7.4c-1.32.06-2.64.09-4,.06a.89.89,0,0,0-.85-.59c-.85.07-1.7.16-2.55.25A1,1,0,0,0,0,7.8.93.93,0,0,0,.67,8.93l1.11.26a7.14,7.14,0,0,0,1.12.14C3.87,9.42,4.85,9.44,5.82,9.45Zm234-3.21h3.73a1.94,1.94,0,0,0,.5.73q-.72.06-1.44.09l-2.72.1L228,7.59c-1.81.07-3.62.17-5.43.2l-8.49.13-19.4.31-37.66.6c-9,.14-18,.42-27,.66L89.46,10.56c-2.71.08-5.43.25-8.14.38L58.26,12.05,35.63,13.13l-2.1.1,6.1-.48,21.31-1.63,7.44-.57,3.84-.24L94.38,9c1.44-.09,2.88-.2,4.33-.26L105,8.47l22.85-.89,5-.19c.44,0,.88,0,1.33,0l3.53-.07,22.89-.47c3.51-.07,7-.15,10.54-.18,11.35-.09,22.69-.21,34-.26C216.71,6.33,228.27,6.25,239.83,6.24Z"/><circle class="cls-1" cx="20.86" cy="22.59" r="0.57"/></g></g></svg>